<svg xmlns="http://www.w3.org/2000/svg" width="332" height="289" viewBox="0 0 332 289">
  <defs>
    <clipPath id="clip-path">
      <rect id="Rectangle_429" width="282.931" height="289" fill="none"/>
    </clipPath>
    <clipPath id="clip-path-3">
      <rect id="Rectangle_424" width="271.858" height="46.506" fill="none"/>
    </clipPath>
    <clipPath id="clip-path-4">
      <rect id="Rectangle_425" width="31.921" height="11.555" fill="none"/>
    </clipPath>
  </defs>
  <g id="Group_1692" transform="translate(-332 -291)">
    <g id="Group_1653" transform="translate(0 -354)">
      <rect id="Rectangle_325" width="332" height="289" transform="translate(332 645)" fill="#fff"/>
    </g>
    <g id="Group_1691" transform="translate(356.534 291)">
      <g id="Group_1690" clip-path="url(#clip-path)">
        <g id="Group_1689">
          <g id="Group_1688" clip-path="url(#clip-path)">
            <g id="Group_1681" transform="translate(3.796 242.494)" opacity="0.56">
              <g id="Group_1680">
                <g id="Group_1679" clip-path="url(#clip-path-3)">
                  <path id="Path_1842" d="M273.948,156.8c0-12.842-60.858-23.254-135.928-23.254S2.09,143.955,2.09,156.8,62.948,180.05,138.02,180.05,273.948,169.638,273.948,156.8" transform="translate(-2.091 -133.544)" fill="#d2ebff"/>
                </g>
              </g>
            </g>
            <path id="Path_1843" d="M125.419,247.713c-47.673-10.038-84-45.311-105.055-102.007A295.286,295.286,0,0,1,3.248,66.379L2.429,50.215,129.892,5.162,257.353,50.215l-.817,16.165a295.367,295.367,0,0,1-17.116,79.327c-21.056,56.7-57.384,91.969-105.057,102.007l-4.471.942Z" transform="translate(1.982 4.211)" fill="#89caf7"/>
            <path id="Path_1844" d="M218.943,55.609,117.984,19.924h0L17.025,55.609s6.837,135.217,100.957,155.038h0C212.106,190.825,218.943,55.609,218.943,55.609" transform="translate(13.89 16.255)" fill="#d2ebff"/>
            <path id="Path_1845" d="M72.486,120.355l46.291-6.613h40.7l36.371,7.122L133.275,152.4Z" transform="translate(59.137 92.795)" fill="#073a93"/>
            <path id="Path_1846" d="M162.222,150.666s-81.9-45.02-91.566-30.268c-13.962,21.313,7.376,32.048,83.427,52.4Z" transform="translate(54.379 95.803)" fill="#073a93"/>
            <path id="Path_1847" d="M145.847,157.276h0a9.6,9.6,0,0,0-5.2-12.54L121.74,136.9l-7.345,17.737,18.912,7.83a9.6,9.6,0,0,0,12.54-5.2" transform="translate(93.328 111.692)" fill="#1858b5"/>
            <path id="Path_1848" d="M120.018,138.479l14.309,5.925a6.5,6.5,0,1,1-4.977,12.017L115.041,150.5Z" transform="translate(93.855 112.977)" fill="#489bff"/>
            <g id="Group_1684" transform="translate(207.723 263.34)" opacity="0.45">
              <g id="Group_1683">
                <g id="Group_1682" clip-path="url(#clip-path-4)">
                  <path id="Path_1849" d="M115.633,145.024l18.912,7.832a9.58,9.58,0,0,0,11.77-3.764,9.46,9.46,0,0,1-13.009,6.755l-18.912-7.83Z" transform="translate(-114.395 -145.024)" fill="#063272"/>
                </g>
              </g>
            </g>
            <path id="Path_1850" d="M118.55,148.669l3.023-7.3a.722.722,0,1,1,1.335.554l-3.022,7.3a.723.723,0,0,1-1.336-.554" transform="translate(96.673 114.97)" fill="#e6e6e6"/>
            <path id="Path_1851" d="M121,149.684l3.023-7.3a.722.722,0,1,1,1.335.554l-3.023,7.3a.722.722,0,1,1-1.335-.554" transform="translate(98.673 115.798)" fill="#e6e6e6"/>
            <path id="Path_1852" d="M123.7,150.8l3.022-7.3a.722.722,0,0,1,1.335.554l-3.023,7.3a.722.722,0,1,1-1.333-.554" transform="translate(100.873 116.709)" fill="#e6e6e6"/>
            <path id="Path_1853" d="M183.464,121.987c-1.26-4.325-7.527-11.654-13.1-26.678C164.57,79.685,139.883,78,139.883,78l-9.584,5.13L120.715,78s-24.688,1.681-30.482,17.3c-5.573,15.024-11.839,22.353-13.1,26.678s5.542,32.327,25.066,36.293h56.2c19.524-3.966,26.326-31.966,25.066-36.293" transform="translate(62.81 63.639)" fill="#489bff"/>
            <path id="Path_1854" d="M121.279,78.059V85.74s-1.772,8.574-10.127,10a13.041,13.041,0,0,1-10.052-10V78.059Z" transform="translate(82.481 63.684)" fill="#f49290"/>
            <path id="Path_1855" d="M96.352,81.785S93.5,63.839,100.324,61.656c1.859-.594.5-6.521,10.893-6.593,14.187-.1,25.369-2.007,23.506,26.969Z" transform="translate(78.124 44.875)" fill="#073a93"/>
            <path id="Path_1856" d="M105.445,73.047a4.9,4.9,0,1,0-4.9,4.9,4.9,4.9,0,0,0,4.9-4.9" transform="translate(78.026 55.595)" fill="#ffb5b1"/>
            <path id="Path_1857" d="M121.891,73.047a4.9,4.9,0,1,0-4.9,4.9,4.9,4.9,0,0,0,4.9-4.9" transform="translate(91.443 55.595)" fill="#ffb5b1"/>
            <path id="Path_1858" d="M130.085,69.2l-.025-.009v0h-.011a7.73,7.73,0,0,1-4.861-6.508l-2.145.6a32.8,32.8,0,0,1-18.157-.173l-1.712-.43A7.783,7.783,0,0,1,98.1,69.188h-.042l-.134,7.944A26.566,26.566,0,0,0,103,91.7a13.662,13.662,0,0,0,21.99,0,26.566,26.566,0,0,0,5.075-14.567l-.005-7.91Z" transform="translate(79.891 51.137)" fill="#ffb5b1"/>
            <path id="Path_1859" d="M146.389,102.489H94.735a5.2,5.2,0,0,0-5.2,5.2v30.966a5.2,5.2,0,0,0,5.2,5.2h51.653a5.2,5.2,0,0,0,5.2-5.2V107.693a5.2,5.2,0,0,0-5.2-5.2" transform="translate(73.043 83.615)" fill="#d2ebff"/>
            <path id="Path_1860" d="M115.853,116.543a6.444,6.444,0,1,0-6.444,6.444,6.443,6.443,0,0,0,6.444-6.444" transform="translate(84.004 89.824)" fill="#89caf7"/>
            <path id="Path_1861" d="M92.516,150.666s81.9-45.02,91.566-30.268c13.962,21.313-7.376,32.048-83.427,52.4Z" transform="translate(75.478 95.803)" fill="#073a93"/>
            <path id="Path_1862" d="M80.413,157.276h0a9.6,9.6,0,0,1,5.2-12.54l18.91-7.832,7.345,17.737-18.912,7.83a9.6,9.6,0,0,1-12.54-5.2" transform="translate(65.006 111.692)" fill="#1858b5"/>
            <path id="Path_1863" d="M107.233,150.5l-14.309,5.925A6.5,6.5,0,1,1,87.948,144.4l14.309-5.923Z" transform="translate(68.466 112.977)" fill="#489bff"/>
            <g id="Group_1687" transform="translate(144.952 263.34)" opacity="0.45">
              <g id="Group_1686">
                <g id="Group_1685" clip-path="url(#clip-path-4)">
                  <path id="Path_1864" d="M110.508,145.024,91.6,152.856a9.58,9.58,0,0,1-11.77-3.764,9.46,9.46,0,0,0,13.009,6.755l18.912-7.83Z" transform="translate(-79.827 -145.024)" fill="#063272"/>
                </g>
              </g>
            </g>
            <path id="Path_1865" d="M95.258,148.669l-3.023-7.3a.722.722,0,1,0-1.335.554l3.023,7.3a.722.722,0,0,0,1.335-.554" transform="translate(74.115 114.97)" fill="#e6e6e6"/>
            <path id="Path_1866" d="M92.807,149.684l-3.023-7.3a.722.722,0,1,0-1.335.554l3.023,7.3a.722.722,0,1,0,1.335-.554" transform="translate(72.115 115.798)" fill="#e6e6e6"/>
            <path id="Path_1867" d="M90.11,150.8l-3.023-7.3a.723.723,0,0,0-1.335.554l3.022,7.3a.723.723,0,0,0,1.336-.554" transform="translate(69.915 116.709)" fill="#e6e6e6"/>
            <path id="Path_1868" d="M31.007,161.373s-21.7-34.639-14.982-39.658,13.3,15.371,16.735,12.1-11.968-32.4-4.694-38.665,6.729,15.008,12.907,18.959-3.343-28.986,4.051-34.132S55.974,91.216,55.974,91.216,64.171,58.6,75.193,65,58.3,104.228,64.852,103.1s13.288-12.21,18.976-4.741-31.556,26.484-25.585,25.994,16.548-7.893,18.384-1.293-30.221,18.505-26.9,20.79,20.08-10.655,22.72-1.129-34.784,24.71-41.439,18.65" transform="translate(12.022 52.348)" fill="#073a93"/>
            <path id="Path_1869" d="M22.246,169.316a113.159,113.159,0,0,0,10.036-21.777c1.371-4.042,2.544-8.226,3.679-12.271.516-1.843,1.033-3.684,1.569-5.522A267.37,267.37,0,0,1,62.639,71.006l.423.243A266.884,266.884,0,0,0,38,129.883c-.534,1.836-1.051,3.673-1.567,5.515-1.137,4.053-2.312,8.244-3.686,12.3a113.758,113.758,0,0,1-10.08,21.872Z" transform="translate(18.149 57.93)" fill="#d2ebff"/>
            <path id="Path_1870" d="M37.529,100.353a.24.24,0,0,1-.094-.123,111.076,111.076,0,0,1-4.9-22.989.245.245,0,1,1,.487-.051A110.524,110.524,0,0,0,37.9,100.075a.246.246,0,0,1-.156.311.241.241,0,0,1-.214-.033" transform="translate(26.538 62.796)" fill="#d2ebff"/>
            <path id="Path_1871" d="M33.65,102.149a.258.258,0,0,1-.06-.058.246.246,0,0,1,.054-.341C40.37,96.838,47.325,91.757,54.78,87.7A18.562,18.562,0,0,1,59.22,85.8a.244.244,0,1,1,.114.474,18.227,18.227,0,0,0-4.32,1.847c-7.429,4.046-14.369,9.116-21.082,14.02a.249.249,0,0,1-.283,0" transform="translate(27.366 69.998)" fill="#d2ebff"/>
            <path id="Path_1872" d="M36.958,116.178a.249.249,0,0,1-.065-.065,98.938,98.938,0,0,1-9.01-16.139,125.5,125.5,0,0,1-4.34-12.961.244.244,0,1,1,.468-.138,125.23,125.23,0,0,0,4.322,12.911A98.268,98.268,0,0,0,37.3,115.84a.245.245,0,0,1-.343.338" transform="translate(19.199 70.732)" fill="#d2ebff"/>
            <path id="Path_1873" d="M30.934,106.5a.244.244,0,0,1,.222-.43,4.19,4.19,0,0,0,2.192.013,36.782,36.782,0,0,0,5.794-1.8l1.05-.389c5.542-2.023,11.329-3.566,16.924-5.061a.248.248,0,0,1,.3.174.243.243,0,0,1-.174.3c-5.584,1.491-11.36,3.032-16.882,5.048q-.523.191-1.046.387a37.371,37.371,0,0,1-5.872,1.819,4.7,4.7,0,0,1-2.451-.035.314.314,0,0,1-.054-.029" transform="translate(25.15 80.63)" fill="#d2ebff"/>
            <path id="Path_1874" d="M35.853,125.355c-6.484-4.46-13.917-16.475-18.311-25.409a.244.244,0,0,1,.111-.327.241.241,0,0,1,.327.111c4.369,8.881,11.743,20.817,18.149,25.222a.244.244,0,0,1-.276.4" transform="translate(14.291 81.252)" fill="#d2ebff"/>
            <path id="Path_1875" d="M27.962,116.963c-.058-.04-.114-.084-.171-.129a.244.244,0,0,1-.033-.343.249.249,0,0,1,.343-.035c.917.743,2.292.51,3.644.14l23.666-6.481a.247.247,0,0,1,.3.171.244.244,0,0,1-.173.3l-23.666,6.483c-1.4.383-2.842.632-3.913-.105" transform="translate(22.602 89.83)" fill="#d2ebff"/>
            <path id="Path_1876" d="M40.148,164.349S2.592,148.079,5.283,140.127s19.695,5.137,20.673.488S-2.3,120.676.146,111.379s14.067,8.563,21.407,8.318S2.347,97.678,5.529,89.238,20.941,92.3,20.941,92.3,9.2,60.735,21.92,59.756s8.318,41.959,13.09,37.31,4.037-17.615,12.967-14.679-11.011,39.758-6.363,35.965,9.175-15.9,14.436-11.5-14.436,32.416-10.4,32.416,10.519-20.183,18.1-13.822-14.679,40.125-23.61,38.9" transform="translate(0.001 48.738)" fill="#489bff"/>
            <path id="Path_1877" d="M35.228,171.076a113.46,113.46,0,0,0-4.077-23.664c-1.162-4.113-2.568-8.231-3.928-12.212-.619-1.814-1.238-3.628-1.838-5.448A267.84,267.84,0,0,1,12.773,67.039L13.26,67a267.373,267.373,0,0,0,12.591,62.6c.6,1.818,1.217,3.63,1.836,5.44,1.362,3.989,2.769,8.113,3.935,12.239a113.82,113.82,0,0,1,4.095,23.766Z" transform="translate(10.421 54.664)" fill="#d2ebff"/>
            <path id="Path_1878" d="M23.638,95.271a.242.242,0,0,1-.149-.051A110.973,110.973,0,0,1,6.4,79.037a.245.245,0,0,1,.372-.318A110.515,110.515,0,0,0,23.787,94.832a.245.245,0,0,1,.045.343.242.242,0,0,1-.194.1" transform="translate(5.174 64.153)" fill="#d2ebff"/>
            <path id="Path_1879" d="M17.4,105.451a.216.216,0,0,1-.082-.015.242.242,0,0,1-.149-.311c2.762-7.87,5.618-16.008,9.464-23.59a18.65,18.65,0,0,1,2.591-4.08.244.244,0,0,1,.363.327,18.194,18.194,0,0,0-2.517,3.975c-3.833,7.552-6.684,15.674-9.441,23.53a.246.246,0,0,1-.231.163" transform="translate(13.998 63.126)" fill="#d2ebff"/>
            <path id="Path_1880" d="M32.146,108.65a.257.257,0,0,1-.091-.015,99.387,99.387,0,0,1-16.591-8.2A125.16,125.16,0,0,1,4.527,92.2a.245.245,0,0,1,.309-.38,125.225,125.225,0,0,0,10.891,8.2,98.456,98.456,0,0,0,16.51,8.16.244.244,0,0,1-.091.47" transform="translate(3.621 74.865)" fill="#d2ebff"/>
            <path id="Path_1881" d="M19.844,110.74a.245.245,0,0,1-.062-.481,4.185,4.185,0,0,0,1.816-1.233,36.822,36.822,0,0,0,3.762-4.77c.214-.307.43-.61.645-.915,3.425-4.814,7.323-9.372,11.093-13.777a.245.245,0,0,1,.372.318c-3.762,4.4-7.654,8.947-11.066,13.742q-.324.455-.645.913a37.231,37.231,0,0,1-3.813,4.834,4.687,4.687,0,0,1-2.041,1.362.358.358,0,0,1-.062.007" transform="translate(15.99 73)" fill="#d2ebff"/>
            <path id="Path_1882" d="M36.442,116.849c-7.881,0-20.831-5.7-29.526-10.575a.245.245,0,1,1,.24-.427c8.643,4.848,21.5,10.512,29.286,10.512a.245.245,0,0,1,0,.49" transform="translate(5.54 86.329)" fill="#d2ebff"/>
            <path id="Path_1883" d="M23.565,121.421c-.071,0-.142,0-.212-.009a.244.244,0,0,1-.223-.265.248.248,0,0,1,.263-.223c1.178.093,2.181-.879,3.087-1.952L42.328,100.2a.245.245,0,0,1,.374.316L26.854,119.288c-.941,1.113-1.988,2.134-3.288,2.134" transform="translate(18.869 81.673)" fill="#d2ebff"/>
            <path id="Path_1884" d="M12.956,120.54l6,37.114a10.864,10.864,0,0,0,10.724,9.132H47.951a10.864,10.864,0,0,0,10.724-9.132l6-37.114Z" transform="translate(10.57 98.341)" fill="#d2ebff"/>
            <path id="Path_1885" d="M64.672,120.54H12.957l.83,5.142H53.655l-5.166,31.971a10.862,10.862,0,0,1-10.724,9.13H47.95a10.862,10.862,0,0,0,10.724-9.13l5.166-31.971Z" transform="translate(10.571 98.341)" fill="#accfe5"/>
            <path id="Path_1886" d="M67.936,114.66H15.066a5.4,5.4,0,1,0,0,10.808h52.87a5.4,5.4,0,1,0,0-10.808" transform="translate(7.883 93.544)" fill="#d2ebff"/>
            <path id="Path_1887" d="M203.087,29.431H96.63a5.5,5.5,0,0,0-5.484,5.484v25.3A5.5,5.5,0,0,0,96.63,65.7H203.087a5.5,5.5,0,0,0,5.484-5.482v-25.3a5.5,5.5,0,0,0-5.484-5.484" transform="translate(74.361 24.011)" fill="#ffaa45"/>
            <path id="Path_1888" d="M112.742,52.949H98.114a2.28,2.28,0,0,1-2.281-2.279V40.66a2.28,2.28,0,0,1,2.281-2.279h14.628a2.279,2.279,0,0,1,2.279,2.279V50.671a2.279,2.279,0,0,1-2.279,2.279" transform="translate(78.184 31.313)" fill="#073a93"/>
            <path id="Path_1889" d="M110.736,41.742h-1.809V38.877a4.828,4.828,0,1,0-9.657,0v2.865H97.462V38.877a6.637,6.637,0,0,1,13.274,0Z" transform="translate(79.513 26.303)" fill="#073a93"/>
            <path id="Path_1890" d="M104.05,42.244a2.025,2.025,0,1,0-3.023,1.75l-.7,3.988h3.394l-.7-3.988a2.014,2.014,0,0,0,1.026-1.75" transform="translate(81.585 32.812)" fill="#ffaa45"/>
            <path id="Path_1891" d="M122.92,41.507a3.32,3.32,0,1,1-3.319-3.319,3.32,3.32,0,0,1,3.319,3.319" transform="translate(94.865 31.155)" fill="#073a93"/>
            <path id="Path_1892" d="M129.9,41.507a3.32,3.32,0,1,1-3.319-3.319,3.32,3.32,0,0,1,3.319,3.319" transform="translate(100.559 31.155)" fill="#073a93"/>
            <path id="Path_1893" d="M136.877,41.507a3.32,3.32,0,1,1-3.321-3.319,3.32,3.32,0,0,1,3.321,3.319" transform="translate(106.252 31.155)" fill="#073a93"/>
            <path id="Path_1894" d="M143.856,41.507a3.32,3.32,0,1,1-3.319-3.319,3.32,3.32,0,0,1,3.319,3.319" transform="translate(111.945 31.155)" fill="#073a93"/>
            <path id="Path_1895" d="M150.835,41.507a3.32,3.32,0,1,1-3.319-3.319,3.32,3.32,0,0,1,3.319,3.319" transform="translate(117.639 31.155)" fill="#073a93"/>
            <path id="Path_1896" d="M101.034,5.661v44.2a5.688,5.688,0,0,1-5.662,5.662H14.593a5.69,5.69,0,0,1-5.678-5.662V5.661A5.69,5.69,0,0,1,14.593,0H95.373a5.688,5.688,0,0,1,5.662,5.662" transform="translate(7.273 -0.001)" fill="#489bff"/>
            <rect id="Rectangle_427" width="92.119" height="12.502" transform="translate(16.188 15.484)" fill="#073a93"/>
            <path id="Path_1897" d="M66.949,19.411H44.03a2.084,2.084,0,1,0,0,4.167h22.92a2.084,2.084,0,0,0,0-4.167" transform="translate(34.22 15.836)" fill="#073a93"/>
            <path id="Path_1898" d="M61.332,23.9H50.915a2.084,2.084,0,1,0,0,4.167H61.332a2.084,2.084,0,0,0,0-4.167" transform="translate(39.837 19.497)" fill="#073a93"/>
          </g>
        </g>
      </g>
    </g>
  </g>
</svg>
