<svg xmlns="http://www.w3.org/2000/svg" xmlns:xlink="http://www.w3.org/1999/xlink" width="810" height="400" fill="none"><rect width="810" height="400" rx="5" fill="#343d63"/><mask id="a" maskUnits="userSpaceOnUse" x="0" y="0" width="810" height="400"><rect width="810" height="400" rx="5" fill="#4eb9f4"/></mask><g mask="url(#a)"><path d="M825.092-7L-3.02 400.706 819.055 407l6.037-414z" fill="url(#D)"/><path d="M818.092-7l-826.1 406.706L812.054 407l6.038-414z" fill="url(#E)"/><path d="M818.092-7l-826.1 406.706L812.054 407l6.038-414z" fill="url(#F)"/></g><path d="M304.049 312.383c-5.369-3.168-5.369-8.344-.069-11.477l101.364 9.998c5.3-3.168 14.043-3.168 19.378 0l102.017-9.998c5.335 3.168 5.369 8.344.069 11.477l-101.364 60.239c-5.3 3.168-14.042 3.168-19.377 0l-102.018-60.239z" fill="#b7c0eb"/><path d="M530.766 300.28c0 .141-.034.317-.034.458-.035.141-.035.247-.069.352a2.35 2.35 0 0 1-.138.458c-.034.105-.103.211-.138.352l-.206.458c-.103.176-.207.387-.344.563-.035.035-.035.07-.069.106-.138.211-.276.387-.448.563-.034.035-.068.07-.103.141-.172.211-.378.387-.551.563l-.413.352-.378.317c-.172.106-.344.246-.482.352l-.516.352-101.364 60.238-.206 4.049 101.294-60.344c.069-.035.104-.07.172-.105.138-.071.241-.141.345-.247.172-.106.344-.211.481-.352l.379-.317c.138-.141.275-.246.413-.352.034-.035.069-.035.069-.07l.482-.528c.034-.036.069-.071.103-.141.103-.106.172-.176.241-.282s.138-.176.206-.282c0-.035.035-.07.069-.105l.31-.458c0-.035.034-.07.069-.105l.206-.423c.035-.106.104-.176.104-.282.034-.035.034-.07.034-.105l.103-.423c.035-.105.069-.176.069-.281v-.071c.035-.141.035-.281.069-.422 0-.106.034-.211.034-.317v-.106l.207-4.048c.034.211 0 .352 0 .492z" fill="#e4e7fb"/><path d="M304.007 305.562c-2.685-1.585-4.027-3.697-4.027-5.774l-.206 4.048c0 2.113 1.342 4.19 4.027 5.774l102.051 60.24.207-4.014-102.052-60.274z" fill="#eff1fe"/><path d="M530.734 295.528c-.344 6.795 1.377 6.9-3.924 10.034l-101.363 60.239c-5.3 3.168-14.043 3.168-19.377 0l-102.018-60.239c-5.335-3.169-5.369-8.344-.068-11.478l101.363-60.238c5.335-3.169 14.043-3.169 19.377 0l106.01 61.682z" fill="#fff"/><path d="M304.035 305.985c-5.369-3.169-5.369-8.344-.069-11.477l101.363-60.274c5.301-3.169 14.043-3.169 19.378 0l102.051 60.238c5.335 3.169 5.37 8.344.069 11.478l-101.363 60.239c-5.3 3.168-14.043 3.168-19.377 0l-102.052-60.204z" fill="url(#G)"/><path d="M423.955 370.521c.448-.176 2.1-1.127 2.479-1.373v-3.909l-2.272 1.233c-.138.07-.275.141-.413.176l-1.067.387a1.87 1.87 0 0 1-.413.141l-.689.211c-.172.071-.378.106-.55.176-.241.035-.517.106-.757.176l-.517.106-1.549.211c-.172 0-.344.035-.516.035l-.895.036h-2.031l-.688-.071c-.241 0-.447 0-.654-.035s-.447-.035-.688-.07l-.62-.106-.723-.141-.55-.106-.861-.211a2.44 2.44 0 0 1-.482-.141 10.04 10.04 0 0 1-1.445-.528l-.689-.281c-.137-.036-.241-.106-.378-.141a59.82 59.82 0 0 1-2.547-1.479v4.155l2.375 1.338c.103.035.206.105.344.14l.619.282c.035.035.069.035.069.035l1.48.493c.035 0 .069.035.138.035.103.036.241.071.378.106l.827.211c.068.036.137.071.24.071.104.035.241.035.379.07.241.035.448.071.688.141.104 0 .207.035.31.035s.241.035.344.035c.207.036.413.036.654.071.104 0 .241.035.345.035h.344c.241.035.447.035.654.035.137 0 .241.035.378.035h1.377c.069 0 .138-.035.241-.035.31 0 .62-.035.895-.07.138 0 .275 0 .379-.035.034 0 .068-.036.103-.036.516-.035 1.032-.14 1.549-.211h.103l.447-.106.723-.176.551-.14.688-.212c.035 0 .104-.035.172-.035a1.59 1.59 0 0 0 .241-.105l1.067-.423c.138.106.31.035.413-.035z" fill="url(#H)"/><path d="M464.034 260.631c-4.709-10.597-10.119-19.751-10.186-19.821-.534-.88-1.536-.951-2.605-.317-.468.281-.902.669-1.336 1.232-1.403 1.76-1.97 4.26-1.202 5.492.067.106 5.544 9.436 10.219 20.068 4.776 10.809 5.978 15.562 6.312 19.294.267 2.781-.234 6.196-3.54 8.203l-36.502 22.216c-.367.211-.701.493-1.002.81l.267-.282-48.324-29.504c-.1.106-.668.74-.734.845s-.468.705-.501.81c-.034.071-.101.176-.134.247s-.2.422-.234.528-.067.176-.1.281-.234.845-.267.951c-.033.141-.067.282-.067.422-.033.212-.033.388-.033.599 0 .951.334 1.655.835 1.972l48.257 29.574c-.134-.071 1.102.387 2.07-.212l39.809-24.257c2.237-1.373 4.074-3.697 5.176-6.584 1.803-4.683 2.705-12.604-6.178-32.567z" fill="#b7c0eb"/><path d="M376.139 286.295l-.5.528c-.101.106-.167.211-.234.317s-.134.176-.201.282l-.167.281c-.066.071-.1.176-.167.247-.033.07-.1.176-.133.246s-.1.176-.134.247c-.033.105-.067.176-.133.281l-.1.282-.101.282-.1.316-.1.352c-.033.141-.067.282-.067.423-.033.211-.033.422-.033.598 0 .951.334 1.62.835 1.937l48.256 29.574c-.534-.317-.834-.986-.834-1.972 0-.176 0-.387.033-.598.033-.141.033-.282.067-.423l.1-.352.1-.317.1-.282.101-.281.1-.282c.033-.07.1-.176.133-.246.034-.106.1-.176.134-.247.033-.105.1-.176.167-.281.067-.071.1-.176.167-.247.067-.105.133-.176.2-.281s.167-.212.234-.317l.568-.599-48.291-29.468z" fill="#e4e8ff"/><path d="M417.012 257.428l-.167 1.091-.1.493-.1.387-.1.317-.1.282a1.76 1.76 0 0 1-.101.246c-.033.071-.066.176-.133.247-.034.07-.067.176-.134.246-.033.071-.1.141-.133.247-.034.07-.101.176-.167.246-.067.106-.134.176-.201.282s-.167.211-.234.317c-.1.14-.667.704-.801.809l48.324 29.503.735-.774c.067-.106.167-.211.234-.317s.133-.176.2-.282c.067-.07.1-.176.167-.246s.1-.176.133-.247l.134-.246c.033-.07.067-.176.134-.246.033-.071.066-.176.1-.247l.1-.282.1-.316.1-.388.101-.493.167-1.091-48.258-29.538z" fill="url(#I)"/><path d="M465.248 287.388l-48.257-29.574c.1-.88.1-1.76.034-2.57-.334-3.732-1.57-8.485-6.312-19.293-4.676-10.633-10.186-19.963-10.219-20.068l48.257 29.574a215.88 215.88 0 0 1 10.219 20.068c4.775 10.808 5.978 15.561 6.312 19.293.066.81.066 1.69-.034 2.57z" fill="#eff1fe"/><path d="M451.252 238.731l-48.258-29.573.401-.211 48.257 29.573c-.1.07-.233.141-.4.211z" fill="#ccc"/><path d="M451.697 238.521l-48.257-29.573c.1-.07.234-.105.334-.141l48.257 29.573c-.133.035-.234.106-.334.141z" fill="#c7c7c7"/><path d="M452.03 238.414l-48.258-29.574c.101-.035.167-.035.268-.07l48.257 29.574c-.1 0-.167.035-.267.07z" fill="#c2c2c2"/><path d="M452.294 238.346l-48.258-29.574c.067-.035.134-.035.234-.035l48.257 29.574c-.1 0-.167.035-.233.035z" fill="#bdbdbd"/><path d="M452.499 238.31l-48.257-29.573h.2l48.257 29.573h-.2z" fill="#b8b8b8"/><path d="M452.7 238.311l-48.257-29.574c.067 0 .1 0 .167.035l48.257 29.574c-.033 0-.1 0-.167-.035z" fill="#b3b3b3"/><path d="M452.892 238.344l-48.258-29.574c.067 0 .1 0 .167.035l48.258 29.574c-.067 0-.134-.035-.167-.035z" fill="#adadad"/><path d="M453.024 238.381l-48.257-29.574c.067.036.1.036.167.071l48.257 29.573c-.066-.035-.1-.07-.167-.07z" fill="#a8a8a8"/><path d="M453.191 238.452l-48.258-29.574c.033 0 .1.035.133.07l48.258 29.574c-.033-.035-.1-.07-.133-.07z" fill="#a3a3a3"/><path d="M453.33 238.52l-48.257-29.573h.033l48.224 29.573z" fill="#9e9e9e"/><path d="M451.254 238.734c1.069-.633 2.07-.563 2.605.317.067.071 5.443 9.224 10.185 19.821 8.884 19.998 7.982 27.919 6.212 32.566-1.102 2.887-2.939 5.211-5.176 6.584l-39.842 24.222c-1.603.986-2.905.211-2.938-1.76 0-1.937 1.302-4.331 2.905-5.316l36.502-22.216c3.306-2.006 3.807-5.422 3.54-8.203-.334-3.732-1.537-8.485-6.312-19.293-4.676-10.632-10.186-19.962-10.219-20.068-.768-1.267-.201-3.731 1.202-5.527.434-.422.902-.845 1.336-1.127z" fill="#dbe0ff"/><path d="M448.699 245.458l-48.257-29.574c-.301-.529-.401-1.233-.301-2.042l48.258 29.574c-.101.81 0 1.549.3 2.042z" fill="#858585"/><path d="M448.386 243.451l-48.257-29.573c0-.141.033-.282.066-.423l48.258 29.574c-.033.141-.067.281-.067.422z" fill="#8a8a8a"/><path d="M448.466 243.029l-48.257-29.574.1-.352 48.257 29.574c-.066.106-.066.211-.1.352z" fill="#8f8f8f"/><path d="M448.525 242.642l-48.257-29.574.1-.317 48.257 29.574-.1.317z" fill="#949494"/><path d="M448.619 242.323l-48.258-29.573.1-.282 48.258 29.573-.1.282z" fill="#999"/><path d="M448.732 242.04l-48.257-29.572.1-.282 48.257 29.573-.1.281z" fill="#9e9e9e"/><path d="M448.83 241.76l-48.258-29.574c.034-.071.067-.176.1-.247l48.258 29.574c0 .071-.067.176-.1.247z" fill="#a3a3a3"/><path d="M448.968 241.514l-48.257-29.573a.57.57 0 0 1 .133-.247l48.258 29.574a.57.57 0 0 0-.134.246z" fill="#a8a8a8"/><path d="M449.062 241.268l-48.258-29.574c.034-.106.101-.176.134-.247l48.257 29.539a1.06 1.06 0 0 1-.133.282z" fill="#adadad"/><path d="M449.195 240.987l-48.258-29.573c.034-.071.101-.176.134-.247l48.257 29.574c-.033.07-.067.176-.133.246z" fill="#b3b3b3"/><path d="M449.353 240.738l-48.258-29.573c.067-.071.1-.176.167-.247l48.258 29.573c-.067.07-.101.141-.167.247z" fill="#b8b8b8"/><path d="M449.526 240.458l-48.257-29.574c.067-.105.133-.176.2-.281l48.258 29.573c-.067.106-.134.211-.201.282z" fill="#bdbdbd"/><path d="M449.737 240.176l-48.257-29.574c.067-.07.134-.141.167-.246.033-.036.033-.036.033-.071l48.258 29.574-.067.07c-.034.106-.067.176-.134.247z" fill="#c2c2c2"/><path d="M449.963 239.894l-48.257-29.573c.1-.141.233-.247.334-.352l48.257 29.573a1.62 1.62 0 0 0-.334.352z" fill="#c7c7c7"/><path d="M450.262 239.543l-48.257-29.574c.3-.317.634-.599.968-.81l48.257 29.575c-.3.211-.634.457-.968.809z" fill="#ccc"/><path d="M353.465 28.479c-.167-.106-.334-.211-.501-.282l-.368-.176c-.033 0-.066-.035-.1-.035s-.033 0-.067-.035c-.167-.07-.334-.176-.501-.247l-.267-.106c-.033-.035-.1-.035-.133-.07-.034 0-.067-.035-.134-.035-.167-.07-.367-.141-.534-.176-.034-.035-.1-.035-.134-.035-.067 0-.1-.035-.167-.035-.1-.035-.167-.035-.234-.07l-.567-.106h-.067c-.167-.035-.367-.07-.534-.07h-1.37c-.167 0-.3.035-.467.07-.1.035-.234.035-.334.035h-.034a6.51 6.51 0 0 0-.801.176l-6.512 1.866a5.86 5.86 0 0 1 .835-.176c.1-.035.2-.035.267-.035.2-.035.401-.035.568-.07h1.068c.267 0 .501.035.768.07h.034c.267.035.567.106.835.176.066 0 .1.035.167.035.267.07.534.176.768.247.066.035.133.035.2.07l.802.352c.033 0 .066.035.133.07l.868.458 194.833 109.211 6.512-1.866L353.465 28.479z" fill="url(#J)"/><path d="M550.441 162.159l-3.74 143.537-.434 1.796c0 .035-.033.07-.033.105a13.29 13.29 0 0 1-.602 1.62c0 .035-.033.07-.033.105l-.701 1.408c-.034.036-.067.106-.1.141-.201.352-.435.669-.668.986-.1.106-.167.247-.267.352-.167.247-.368.423-.568.634l-.434.458-.635.528c-.167.105-.3.246-.467.352-.234.176-.501.317-.735.422-.134.071-.267.176-.434.247-.401.211-.835.352-1.236.493l6.512-1.866c.434-.141.835-.282 1.236-.493l.367-.212.802-.457.434-.317.668-.528.4-.458c.167-.176.301-.282.468-.493.033-.07.1-.141.133-.176.101-.105.167-.211.268-.317l.334-.422.333-.528c.034-.071.067-.106.101-.176.033-.035.033-.071.066-.106l.401-.739c.1-.176.167-.352.234-.528.033-.035.033-.071.067-.106 0-.035.033-.035.033-.07.1-.212.167-.458.267-.704.1-.212.167-.458.234-.669 0-.036.033-.106.033-.141s.034-.106.034-.141l.1-.387c.067-.212.1-.458.167-.669s.1-.458.167-.669v-.035l3.74-143.537-6.512 1.76z" fill="#c8cff7"/><path d="M458.934 265.524c-4.675-10.632-10.186-19.962-10.219-20.067l-48.257-29.574c.033.105 5.543 9.4 10.219 20.068.935 2.147 2.204 5.316 2.905 7.006l48.324 29.855-2.972-7.288z" fill="#b7c0eb"/><path d="M541.785 139.555c6.412 3.908 10.286 14.047 8.616 22.567l-3.74 143.538c-1.67 8.52-8.283 12.287-14.695 8.379L338.671 196.414c-6.412-3.908-10.286-14.048-8.616-22.568l2.204-135.123c1.67-8.52 8.282-12.287 14.694-8.379l194.832 109.211z" fill="#d8ddfc"/><path d="M338.174 172.895c-1.068-.775-2.838-4.683-2.237-7.745l.601-124.174c1.503-7.253 10.119-4.366 10.119-4.366l191.861 107.556c5.543 3.943 7.08 6.619 7.08 16.97l-2.405 123.082c-2.304 10.809-10.52 7.077-10.52 7.077l-194.499-118.4z" fill="#a4aede"/><path d="M557.318 156.806v-.774c0-.211 0-.423-.033-.634v-.176l-.067-.845c0-.211-.033-.387-.067-.598v-.282l-.133-.951c-.034-.105-.034-.211-.067-.352-.034-.105-.034-.211-.067-.317-.033-.14-.033-.281-.067-.422-.067-.247-.1-.528-.167-.775-.033-.105-.033-.246-.067-.352 0-.035-.033-.105-.033-.176-.033-.176-.1-.317-.133-.493l-.334-1.126c-.034-.071-.034-.141-.067-.212-.034-.14-.1-.281-.134-.422l-.434-1.091c-.1-.212-.167-.458-.267-.669l-.501-1.057-.2-.387c-.034-.07-.067-.106-.101-.176l-.834-1.408c-.034-.035-.067-.106-.101-.141l-.734-1.091c-.034-.036-.067-.106-.1-.141-.067-.071-.101-.141-.167-.212l-.401-.492-.401-.458-.133-.141-.101-.106c-.167-.211-.367-.387-.567-.598-.101-.106-.167-.176-.267-.247l-.101-.105-.133-.141c-.167-.141-.334-.317-.535-.458l-.333-.246c-.034 0-.067-.035-.067-.071-.034-.035-.067-.07-.1-.07-.167-.141-.334-.246-.501-.352l-.501-.317-6.512 1.866h.033l1.102.775c.034.035.067.035.134.07.334.247.668.528.968.845.034.035.1.07.134.141l.901.915c.067.071.101.141.167.176.268.282.501.599.735.88.067.071.134.141.167.247l.735 1.021c.033.07.1.141.133.211.334.493.635 1.021.902 1.549l.267.528.534 1.092.268.598.434 1.127.233.634c.134.387.234.774.334 1.161a3.73 3.73 0 0 0 .167.564l.101.457c.1.353.167.74.233 1.092.034.106.034.246.067.352l.2 1.408v.176c.067.493.101 1.021.101 1.514v1.761l-.101 1.478c0 .035 0 .106-.033.141l-.234 1.549 6.512-1.866.1-.634.101-.704c0-.07.033-.141.033-.211v-.141c0-.105.033-.211.033-.352l.067-.704c0-.141 0-.282.034-.422v-.141c-.034.035-.034-.035-.034-.071z" fill="url(#K)"/><path d="M424.228 316.011l-48.257-29.574c.3-.316.634-.598.968-.809l36.502-22.216c.601-.352 1.102-.774 1.536-1.232l48.257 29.574c-.434.457-.935.844-1.536 1.197l-36.502 22.215-.968.845z" fill="url(#L)"/><path opacity=".15" d="M471.174 138.686L331.571 61.724c-3.889-2.148-8.57.739-8.57 5.246v114.07c0 6.126 3.201 11.794 8.432 14.857l137.641 80.412c4.647 2.711 10.395-.704 10.395-6.161V152.91c0-5.95-3.167-11.407-8.295-14.224z" fill="#343d63"/><path d="M443.439 152.147L303.837 75.185c-3.89-2.148-8.571.739-8.571 5.246V194.5c0 6.126 3.201 11.795 8.433 14.858L441.34 289.77c4.646 2.71 10.394-.705 10.394-6.162V166.37c0-5.95-3.166-11.407-8.295-14.223z" fill="#fff"/><mask id="b" maskUnits="userSpaceOnUse" x="294" y="63" width="165" height="113"><path d="M295.412 88.489l156.601 86.684 5.467-22.37-162.068-88.681v24.368z" fill="#c4c4c4" stroke="#000"/></mask><g filter="url(#C)" mask="url(#b)"><path d="M443.439 151.146L303.837 74.184c-3.89-2.148-8.571.739-8.571 5.246V193.5c0 6.126 3.201 11.794 8.433 14.857l137.641 80.412c4.646 2.711 10.394-.704 10.394-6.161V165.37c0-5.95-3.166-11.407-8.295-14.224z" fill="#4eb9f4"/></g><path d="M395.852 137.079v-2.746c0-1.126-.62-2.183-1.584-2.711l-38.996-21.3c-.551-.317-1.205.106-1.205.739v2.711c0 1.127.585 2.148 1.549 2.641l39.134 21.37c.482.317 1.102-.07 1.102-.704z" fill="#fff"/><path d="M400 168.407V245l-62-33.313V134l62 34.407z" fill="#343d63"/><path d="M353 206.335v-4.257c0-.794.837-1.334 1.52-.953l25.061 13.469A4.59 4.59 0 0 1 382 218.66v3.717c0 1.239-1.272 2.002-2.326 1.43l-24.441-13.628c-1.396-.763-2.233-2.224-2.233-3.844z" fill="#0ed2af"/><g fill="#fff"><path d="M353 192.335v-4.257c0-.794.837-1.334 1.52-.953l25.061 13.469A4.59 4.59 0 0 1 382 204.66v3.717c0 1.239-1.272 2.002-2.326 1.43l-24.441-13.628c-1.396-.763-2.233-2.256-2.233-3.844zm0-15v-4.257c0-.794.837-1.334 1.52-.953l25.061 13.469A4.59 4.59 0 0 1 382 189.66v3.717c0 1.239-1.272 2.002-2.326 1.43l-24.441-13.628c-1.396-.763-2.233-2.256-2.233-3.844z"/><path opacity=".7" d="M379 167.222a1 1 0 0 0-.519-.876l-21.032-11.55a.97.97 0 0 0-.938 1.698l21.003 11.68A1 1 0 0 0 379 167.3v-.078zm8 12.296a.88.88 0 0 0-.454-.769l-36.101-19.95c-.646-.358-1.438.114-1.433.852a.97.97 0 0 0 .502.841l36.186 19.797a.88.88 0 0 0 1.3-.771z"/><path d="M564.58 250.26h1.205a.46.46 0 0 0 .447-.457c0-.247-.172-.493-.447-.458h-1.17c-.241 0-.448.211-.448.458-.034.246.172.457.413.457zm-5.954-.176c.241 0 .447-.176.447-.422a.49.49 0 0 0-.413-.493l-1.205-.071c-.241-.035-.447.177-.481.423a.49.49 0 0 0 .413.493c.413 0 .791.035 1.239.07-.035 0-.035 0 0 0zm13.113-.176h.035l1.204-.105a.49.49 0 0 0 .413-.493c-.034-.247-.241-.458-.482-.423l-1.17.106a.49.49 0 0 0-.413.493.4.4 0 0 0 .413.422zm7.09-.915h.069l1.171-.211c.241-.036.413-.282.344-.529-.035-.246-.276-.387-.517-.352l-1.17.212a.47.47 0 0 0-.378.528c.103.176.275.352.481.352zm6.988-1.62h.103l1.17-.317c.241-.07.379-.316.31-.563s-.31-.387-.551-.317l-1.136.317c-.241.071-.378.317-.31.563.069.212.241.317.414.317zm6.814-2.253c.069 0 .104 0 .173-.035l1.135-.458a.44.44 0 0 0 .241-.598c-.103-.247-.344-.352-.585-.247l-1.101.458a.44.44 0 0 0-.241.598c.034.176.206.282.378.282zm6.574-2.957c.069 0 .138 0 .207-.035l1.067-.564c.206-.105.31-.387.172-.634a.44.44 0 0 0-.62-.176l-1.066.564a.47.47 0 0 0-.207.598c.103.141.275.247.447.247zm6.196-3.627a.63.63 0 0 0 .241-.07l.998-.669c.206-.141.275-.422.138-.634s-.413-.281-.62-.14l-.998.668c-.207.141-.275.423-.138.634.103.141.241.211.379.211zm5.817-4.295c.103 0 .206-.035.275-.105l.929-.775a.46.46 0 0 0 .069-.634c-.172-.176-.447-.211-.619-.07l-.93.774c-.206.141-.206.458-.069.634.104.106.207.176.345.176zm5.335-4.894c.103 0 .24-.035.309-.14l.861-.881c.172-.176.172-.457 0-.633a.43.43 0 0 0-.62 0l-.826.845c-.172.176-.172.457 0 .633.069.141.172.176.276.176zm4.818-5.421c.138 0 .275-.071.344-.176l.758-.951c.137-.211.103-.493-.069-.634-.207-.141-.482-.141-.62.071l-.757.95c-.172.212-.138.493.069.634.103.07.172.106.275.106zm4.268-5.88c.138 0 .275-.07.379-.211l.654-1.021c.137-.211.068-.493-.138-.634s-.482-.07-.62.141l-.654 1.021c-.137.211-.068.493.138.634a.63.63 0 0 0 .241.07zm3.683-6.267c.172 0 .31-.105.379-.246l.55-1.092c.103-.211.035-.492-.206-.598a.42.42 0 0 0-.585.211l-.551 1.092a.51.51 0 0 0 .172.633c.103-.035.172 0 .241 0zm3.029-6.654c.172 0 .344-.105.413-.281l.447-1.127c.103-.247-.034-.493-.241-.599-.241-.105-.482.036-.585.247l-.447 1.126a.44.44 0 0 0 .241.599c.068.035.137.035.172.035zm2.443-6.865c.207 0 .379-.141.414-.317l.344-1.162c.069-.246-.069-.493-.31-.563a.44.44 0 0 0-.551.317l-.344 1.162c-.069.246.069.492.31.563.034-.035.103 0 .137 0zm1.756-7.112c.206 0 .378-.141.447-.352l.241-1.197c.035-.246-.103-.493-.344-.528s-.482.106-.516.352l-.241 1.197c-.035.246.103.493.344.528h.069zm1.101-7.252c.241 0 .413-.177.448-.423l.103-1.232c.034-.247-.172-.458-.413-.493s-.448.176-.482.422l-.103 1.197c-.035.247.137.493.413.493 0 .036.034.036.034.036zm.413-7.288c.241 0 .448-.212.448-.458v-1.232c0-.247-.207-.458-.448-.458a.46.46 0 0 0-.447.458v1.232c0 .246.206.458.447.458zm-.309-7.323h.034a.49.49 0 0 0 .413-.493l-.138-1.232c-.034-.247-.241-.458-.482-.388-.241.035-.413.247-.378.493l.137 1.197c0 .247.173.423.414.423zm-1.067-7.253h.103c.241-.035.413-.282.344-.528l-.241-1.197c-.069-.246-.31-.387-.516-.352-.241.07-.379.317-.344.563.103.387.172.775.24 1.197 0 .176.207.317.414.317zm-64.673-5.211c.413 0 .86-.07 1.273-.176.241-.07.379-.316.31-.563s-.31-.387-.551-.317a3.85 3.85 0 0 1-1.067.141.46.46 0 0 0-.447.458c.034.246.241.457.482.457zm62.814-1.865c.034 0 .103 0 .138-.036.241-.07.378-.352.275-.563l-.379-1.162c-.069-.246-.344-.352-.585-.281s-.344.352-.275.598l.378 1.162c.104.176.276.282.448.282zm-67.736-1.092c.103 0 .172-.035.275-.07.207-.141.241-.423.103-.634l-.619-.986a.49.49 0 0 0-.62-.176c-.206.141-.275.423-.172.634.207.387.448.739.688 1.056.069.106.207.176.345.176zm10.91-.669c.138 0 .241-.035.345-.141l.791-.95c.138-.211.104-.493-.069-.634-.206-.141-.481-.106-.619.07l-.757.916c-.172.176-.138.493.034.634.069.07.172.105.275.105zm54.176-5.034c.068 0 .137 0 .206-.036a.47.47 0 0 0 .207-.598l-.517-1.092c-.103-.211-.378-.316-.585-.211s-.309.388-.206.599l.516 1.091c.069.141.207.247.379.247zm-67.805-1.057h.103c.241-.07.378-.281.344-.528l-.241-1.197c-.034-.246-.275-.422-.516-.387s-.413.282-.379.528l.241 1.232c.035.212.241.352.448.352zm17.588 0c.172 0 .309-.105.413-.246l.516-1.127c.103-.246 0-.493-.207-.598s-.481 0-.585.211l-.516 1.091c-.103.212-.034.493.207.599.068.07.137.07.172.07zm46.74-5.351a.63.63 0 0 0 .241-.07c.207-.141.276-.423.138-.634l-.654-1.021c-.138-.211-.413-.247-.62-.106s-.275.423-.103.634l.654 1.021a.42.42 0 0 0 .344.176zm-44.331-1.514c.206 0 .379-.141.447-.352l.241-1.232a.47.47 0 0 0-.378-.528c-.241-.036-.482.141-.517.387l-.206 1.197c-.069.246.103.493.344.528h.069zm-20.651-.422c.241 0 .447-.212.447-.458 0-.387.035-.81.069-1.197a.49.49 0 0 0-.413-.493c-.241 0-.448.176-.482.422l-.069 1.233c0 .281.172.493.448.493zm60.714-3.944c.104 0 .207-.035.276-.105.172-.176.206-.458.034-.634l-.791-.915c-.173-.176-.448-.212-.62-.035s-.206.457-.034.633l.791.916c.103.105.207.14.344.14zm-39.512-2.922c.275 0 .447-.246.447-.493l-.103-1.232c-.035-.246-.241-.422-.482-.422a.49.49 0 0 0-.413.493l.103 1.197c0 .246.207.457.448.457zm-20.17-.352a.41.41 0 0 0 .413-.352l.344-1.162c.069-.246-.068-.493-.275-.563a.45.45 0 0 0-.551.282c-.137.387-.241.774-.344 1.197-.069.246.069.493.31.563 0 .035.034.035.103.035zm54.657-1.936c.138 0 .241-.035.344-.141.173-.176.138-.493-.034-.634l-.929-.809c-.207-.176-.482-.141-.62.07-.172.211-.137.493.069.634l.895.774c.069.071.172.106.275.106zm-5.713-4.436c.137 0 .275-.071.378-.211.138-.212.069-.493-.137-.634l-.998-.669c-.207-.141-.482-.071-.62.141s-.069.493.138.633l.998.669c.103.036.172.071.241.071zm-46.156-.352c.138 0 .31-.071.379-.212.206-.352.413-.668.654-.985.137-.212.103-.493-.104-.634s-.481-.106-.619.106l-.688 1.056c-.138.211-.069.493.137.634.069 0 .172.035.241.035zm16.177-.141h.103c.241-.071.379-.317.31-.563l-.344-1.197c-.069-.247-.31-.388-.551-.282a.41.41 0 0 0-.275.563l.344 1.162c.034.176.206.317.413.317zm23.749-3.134c.172 0 .31-.105.413-.246a.47.47 0 0 0-.207-.598l-1.101-.529c-.241-.105-.482 0-.585.212-.103.246 0 .493.206.598l1.067.528a.6.6 0 0 0 .207.035zm-35.142-2.147c.104 0 .207-.035.276-.106a9.58 9.58 0 0 1 .963-.669c.207-.14.276-.422.138-.633s-.413-.282-.619-.141c-.345.246-.689.457-.999.739-.206.141-.241.423-.103.634.069.105.207.176.344.176zm28.568-.775c.172 0 .344-.105.413-.281.103-.247-.034-.493-.275-.599l-1.136-.422a.47.47 0 0 0-.585.281c-.069.247.034.493.275.599l1.101.422h.207zm-19.722-.809c.069 0 .138 0 .206-.036a.47.47 0 0 0 .207-.598l-.516-1.092c-.104-.211-.379-.316-.585-.211a.47.47 0 0 0-.207.599l.516 1.091c.069.141.207.247.379.247zm12.907-1.373c.207 0 .379-.141.447-.353.069-.246-.103-.492-.344-.563l-1.17-.282c-.241-.035-.482.106-.516.353s.103.492.344.528c.379.07.757.176 1.17.281 0 .036.035.036.069.036zm-15.385-.247c.034 0 .069 0 .137-.035l1.136-.282c.241-.07.379-.281.345-.528-.069-.246-.31-.387-.517-.352l-1.17.317c-.241.07-.379.317-.31.563.035.176.207.317.379.317zm8.295-.845c.241 0 .447-.176.447-.422a.49.49 0 0 0-.413-.493c-.413-.035-.826-.035-1.204-.035-.276 0-.448.211-.448.457s.207.458.448.458l1.17.035zm-9.293-3.943a.63.63 0 0 0 .241-.07c.206-.141.275-.423.137-.634l-.654-1.021c-.137-.211-.413-.282-.619-.141s-.276.422-.138.634l.654 1.021c.103.141.241.211.379.211zm-4.131-5.985c.104 0 .207-.035.276-.106a.43.43 0 0 0 .069-.634l-.758-.95c-.137-.211-.447-.211-.619-.071-.207.141-.207.458-.069.634l.723.951c.103.141.241.176.378.176zm-4.646-5.598c.103 0 .206-.035.31-.106.172-.176.206-.457.034-.633l-.792-.916c-.172-.176-.447-.211-.619-.035s-.207.458-.035.634l.792.88c.069.141.207.176.31.176zm-4.991-5.281c.103 0 .241-.035.31-.141.172-.176.172-.458 0-.634l-.861-.845a.43.43 0 0 0-.619 0c-.172.176-.172.458 0 .634l.86.845c.104.106.207.141.31.141zm-5.266-4.964c.138 0 .241-.035.344-.141.172-.176.138-.493-.034-.634l-.895-.81c-.172-.176-.482-.141-.62.035-.172.176-.137.493.035.634l.895.81c.069.07.172.106.275.106zm-5.473-4.718c.138 0 .276-.07.345-.176.137-.211.137-.493-.069-.634l-.929-.775c-.207-.141-.482-.106-.62.07-.138.211-.103.493.069.634l.929.775c.069.07.172.106.275.106zm-5.713-4.506a.55.55 0 0 0 .379-.176c.137-.211.103-.493-.104-.634l-.963-.739c-.207-.141-.482-.106-.62.106s-.103.493.103.634l.964.704c.069.106.172.106.241.106z"/></g><path d="M558.626 250.084c.241 0 .447-.176.447-.422a.49.49 0 0 0-.413-.493l-1.205-.071c-.241-.035-.447.177-.481.423a.49.49 0 0 0 .413.493c.413 0 .791.035 1.239.07zm0 0c-.035 0-.035 0 0 0zm5.954.176h1.205a.46.46 0 0 0 .447-.457c0-.247-.172-.493-.447-.458h-1.17c-.241 0-.448.211-.448.458-.034.246.172.457.413.457zm7.159-.352h.035l1.204-.105a.49.49 0 0 0 .413-.493c-.034-.247-.241-.458-.482-.423l-1.17.106a.49.49 0 0 0-.413.493.4.4 0 0 0 .413.422zm7.091-.915h.068l1.171-.211c.241-.036.413-.282.344-.529-.035-.246-.276-.387-.517-.352l-1.17.212a.47.47 0 0 0-.378.528c.103.176.275.352.482.352zm6.987-1.62h.103l1.17-.317c.241-.07.379-.316.31-.563s-.31-.387-.551-.317l-1.136.317c-.241.071-.378.317-.31.563.069.212.241.317.414.317zm6.814-2.253c.069 0 .104 0 .173-.035l1.135-.458a.44.44 0 0 0 .241-.598c-.103-.247-.344-.352-.585-.247l-1.101.458a.44.44 0 0 0-.241.598c.034.176.206.282.378.282zm6.574-2.957c.069 0 .138 0 .207-.035l1.067-.564c.206-.105.31-.387.172-.634a.44.44 0 0 0-.62-.176l-1.066.564a.47.47 0 0 0-.207.598c.103.141.275.247.447.247zm6.196-3.627a.63.63 0 0 0 .241-.07l.998-.669c.206-.141.275-.422.138-.634s-.413-.281-.62-.14l-.998.668c-.207.141-.275.423-.138.634.103.141.241.211.379.211zm5.817-4.295c.103 0 .206-.035.275-.105l.929-.775a.46.46 0 0 0 .069-.634c-.172-.176-.447-.211-.619-.07l-.93.774c-.206.141-.206.458-.069.634.104.106.207.176.345.176zm5.335-4.894c.103 0 .24-.035.309-.14l.861-.881c.172-.176.172-.457 0-.633a.43.43 0 0 0-.62 0l-.826.845c-.172.176-.172.457 0 .633.069.141.172.176.276.176zm4.818-5.421c.138 0 .275-.071.344-.176l.758-.951c.137-.211.103-.493-.069-.634-.207-.141-.482-.141-.62.071l-.757.95c-.172.212-.138.493.069.634.103.07.172.106.275.106zm4.268-5.88c.138 0 .275-.07.379-.211l.654-1.021c.137-.211.068-.493-.138-.634s-.482-.07-.62.141l-.654 1.021c-.137.211-.068.493.138.634a.63.63 0 0 0 .241.07zm3.683-6.267c.172 0 .31-.105.379-.246l.55-1.092c.103-.211.035-.492-.206-.598a.42.42 0 0 0-.585.211l-.551 1.092a.51.51 0 0 0 .172.633c.103-.035.172 0 .241 0zm3.029-6.654c.172 0 .344-.105.413-.281l.447-1.127c.103-.247-.034-.493-.241-.599-.241-.105-.482.036-.585.247l-.447 1.126a.44.44 0 0 0 .241.599c.068.035.137.035.172.035zm2.443-6.865c.207 0 .379-.141.414-.317l.344-1.162c.069-.246-.069-.493-.31-.563a.44.44 0 0 0-.551.317l-.344 1.162c-.069.246.069.492.31.563.034-.035.103 0 .137 0zm1.756-7.112c.206 0 .378-.141.447-.352l.241-1.197c.035-.246-.103-.493-.344-.528s-.482.106-.516.352l-.241 1.197c-.035.246.103.493.344.528h.069zm1.101-7.253c.241 0 .413-.176.448-.422l.103-1.232c.034-.247-.172-.458-.413-.493s-.448.176-.482.422l-.103 1.197c-.035.247.137.493.413.493 0 .035.034.035.034.035zm.413-7.287c.241 0 .448-.212.448-.458v-1.232c0-.247-.207-.458-.448-.458a.46.46 0 0 0-.447.458v1.232c0 .246.206.458.447.458zm-.309-7.323h.034a.49.49 0 0 0 .413-.493l-.138-1.232c-.034-.247-.241-.458-.482-.388-.241.035-.413.247-.378.493l.137 1.197c0 .247.173.423.414.423zm-1.067-7.253h.103c.241-.035.413-.282.344-.528l-.241-1.197c-.069-.246-.31-.387-.516-.352-.241.07-.379.317-.344.563.103.387.172.775.24 1.197 0 .176.207.317.414.317zm-64.673-5.211c.413 0 .86-.07 1.273-.176.241-.07.379-.316.31-.563s-.31-.387-.551-.317a3.85 3.85 0 0 1-1.067.141.46.46 0 0 0-.447.458c.034.246.241.457.482.457zm62.814-1.865c.034 0 .103 0 .138-.036.241-.07.378-.352.275-.563l-.379-1.162c-.069-.246-.344-.352-.585-.281s-.344.352-.275.598l.378 1.162c.104.176.276.282.448.282zm-67.736-1.092c.103 0 .172-.035.275-.07.207-.141.241-.423.103-.634l-.619-.986a.49.49 0 0 0-.62-.176c-.206.141-.275.423-.172.634.207.387.448.739.688 1.056.069.106.207.176.345.176zm10.91-.669c.138 0 .241-.035.345-.141l.791-.95c.138-.211.104-.493-.069-.634-.206-.141-.481-.106-.619.07l-.757.916c-.172.176-.138.493.034.634.069.07.172.105.275.105zm54.176-5.034c.068 0 .137 0 .206-.036a.47.47 0 0 0 .207-.598l-.517-1.092c-.103-.211-.378-.316-.585-.211s-.309.388-.206.599l.516 1.091c.069.141.207.247.379.247zm-67.805-1.057h.103c.241-.07.378-.281.344-.528l-.241-1.197c-.034-.246-.275-.422-.516-.387s-.413.282-.379.528l.241 1.232c.035.212.241.352.448.352zm17.588 0c.172 0 .309-.105.413-.246l.516-1.127c.103-.246 0-.493-.207-.598s-.481 0-.585.211l-.516 1.091c-.103.212-.034.493.207.599.068.07.137.07.172.07zm46.74-5.351a.63.63 0 0 0 .241-.07c.207-.141.276-.423.138-.634l-.654-1.021c-.138-.211-.413-.247-.62-.106s-.275.423-.103.634l.654 1.021a.42.42 0 0 0 .344.176zm-44.331-1.514c.206 0 .379-.141.447-.352l.241-1.232a.47.47 0 0 0-.378-.528c-.241-.036-.482.141-.517.387l-.206 1.197c-.069.246.103.493.344.528h.069zm-20.651-.422c.241 0 .447-.212.447-.458 0-.387.035-.81.069-1.197a.49.49 0 0 0-.413-.493c-.241 0-.448.176-.482.422l-.069 1.233c0 .281.172.493.448.493zm60.714-3.944c.104 0 .207-.035.276-.105.172-.176.206-.458.034-.634l-.791-.915c-.173-.176-.448-.212-.62-.035s-.206.457-.034.633l.791.916c.103.105.207.14.344.14zm-39.512-2.922c.275 0 .447-.246.447-.493l-.103-1.232c-.035-.246-.241-.422-.482-.422a.49.49 0 0 0-.413.493l.103 1.197c0 .246.207.457.448.457zm-20.17-.352a.41.41 0 0 0 .413-.352l.344-1.162c.069-.246-.068-.493-.275-.563a.45.45 0 0 0-.551.282c-.137.387-.241.774-.344 1.197-.069.246.069.493.31.563 0 .035.034.035.103.035zm54.657-1.936c.138 0 .241-.035.344-.141.173-.176.138-.493-.034-.634l-.929-.809c-.207-.176-.482-.141-.62.07-.172.211-.137.493.069.634l.895.774c.069.071.172.106.275.106zm-5.713-4.436c.137 0 .275-.071.378-.211.138-.212.069-.493-.137-.634l-.998-.669c-.207-.141-.482-.071-.62.141s-.069.493.138.633l.998.669c.103.036.172.071.241.071zm-46.156-.352c.138 0 .31-.071.379-.212.206-.352.413-.668.654-.985.137-.212.103-.493-.104-.634s-.481-.106-.619.106l-.688 1.056c-.138.211-.069.493.137.634.069 0 .172.035.241.035zm16.177-.141h.103c.241-.071.379-.317.31-.563l-.344-1.197c-.069-.247-.31-.388-.551-.282a.41.41 0 0 0-.275.563l.344 1.162c.034.176.206.317.413.317zm23.749-3.134c.172 0 .31-.105.413-.246a.47.47 0 0 0-.207-.598l-1.101-.529c-.241-.105-.482 0-.585.212-.103.246 0 .493.206.598l1.067.528a.6.6 0 0 0 .207.035zm-35.142-2.147c.104 0 .207-.035.276-.106a9.58 9.58 0 0 1 .963-.669c.207-.14.276-.422.138-.633s-.413-.282-.619-.141c-.345.246-.689.457-.999.739-.206.141-.241.423-.103.634.069.105.207.176.344.176zm28.568-.775c.172 0 .344-.105.413-.281.103-.247-.034-.493-.275-.599l-1.136-.422a.47.47 0 0 0-.585.281c-.069.247.034.493.275.599l1.101.422h.207zm-19.722-.809c.069 0 .138 0 .206-.036a.47.47 0 0 0 .207-.598l-.516-1.092c-.104-.211-.379-.316-.585-.211a.47.47 0 0 0-.207.599l.516 1.091c.069.141.207.247.379.247zm12.907-1.373c.207 0 .379-.141.447-.353.069-.246-.103-.492-.344-.563l-1.17-.282c-.241-.035-.482.106-.516.353s.103.492.344.528c.379.07.757.176 1.17.281 0 .036.035.036.069.036zm-15.385-.247c.034 0 .069 0 .138-.035l1.135-.282c.241-.07.379-.281.345-.528-.069-.246-.31-.387-.517-.352l-1.17.317c-.241.07-.379.317-.31.563.035.176.207.317.379.317zm8.295-.845c.241 0 .447-.176.447-.422a.49.49 0 0 0-.413-.493c-.413-.035-.826-.035-1.204-.035-.276 0-.448.211-.448.457s.207.458.448.458l1.17.035zm-9.293-3.943a.63.63 0 0 0 .241-.07c.206-.141.275-.423.137-.634l-.654-1.021c-.137-.211-.413-.282-.619-.141s-.276.422-.138.634l.654 1.021c.103.141.241.211.379.211zm-4.131-5.985c.104 0 .207-.035.276-.106a.43.43 0 0 0 .069-.634l-.758-.95c-.137-.211-.447-.211-.619-.071-.207.141-.207.458-.069.634l.723.951c.103.141.241.176.378.176zm-4.646-5.598c.103 0 .206-.035.31-.106.172-.176.206-.457.034-.633l-.792-.916c-.172-.176-.447-.211-.619-.035s-.207.458-.035.634l.792.88c.069.141.207.176.31.176zm-4.991-5.281c.103 0 .241-.035.31-.141.172-.176.172-.458 0-.634l-.861-.845a.43.43 0 0 0-.619 0c-.172.176-.172.458 0 .634l.86.845c.104.106.207.141.31.141zm-5.266-4.964c.138 0 .241-.035.344-.141.172-.176.138-.493-.034-.634l-.895-.81c-.172-.176-.482-.141-.62.035-.172.176-.137.493.035.634l.895.81c.069.07.172.106.275.106zm-5.473-4.718c.138 0 .276-.07.345-.176.137-.211.137-.493-.069-.634l-.929-.775c-.207-.141-.482-.106-.62.07-.138.211-.103.493.069.634l.929.775c.069.07.172.106.275.106zm-5.713-4.506a.55.55 0 0 0 .379-.176c.137-.211.103-.493-.104-.634l-.963-.739c-.207-.141-.482-.106-.62.106s-.103.493.103.634l.964.704c.069.106.172.106.241.106z" stroke="#fff"/><path d="M527.077 65.601c0-.458.241-.88.585-1.162l6.505-4.823c.378-.282.895-.352 1.342-.211.448.176.792.563.929 1.021l3.339 12.991c.172.634-.103 1.267-.62 1.62-.137.07-.275.141-.413.176-.447.106-.929.035-1.273-.282l-9.843-8.168c-.379-.246-.551-.704-.551-1.162z" fill="#008fe0"/><path d="M500.785 38.385c.344-.422.895-.634 1.446-.493l48.152 11.266a1.45 1.45 0 0 1 1.101 1.197c.103.599-.137 1.197-.619 1.514l-33.834 22.955c-.138.106-.276.141-.448.211-.241.07-.516.07-.791 0-.413-.141-.758-.422-.93-.845L500.579 39.97c-.241-.563-.138-1.162.206-1.584z" fill="#00b9f5"/><path d="M538.61 62.573l-30.702-19.012 34.178 16.618-3.476 2.394z" fill="#343d63"/><path d="M212.183 272.066v-6.689c.688-1.937 1.996-3.838 3.889-5.528 2.238 1.092 5.507.986 7.607-.246.172-.106.31-.176.413-.282v-4.225c2.891-1.126 6.092-1.901 9.362-2.288.275 1.69 2.685 3.028 5.645 3.028 1.583 0 2.994-.388 4.027-.986.895-.528 1.514-1.232 1.652-2.042 3.27.422 6.436 1.162 9.327 2.288v4.26l.344.247c2.066 1.232 5.37 1.302 7.607.246 1.893 1.725 3.167 3.591 3.855 5.528l.034 9.012h-.034l.034 6.69c-.688 1.936-1.996 3.837-3.889 5.527-.275-.141-.551-.246-.861-.352-.034 0-.068 0-.068-.035l-.861-.212c-.034 0-.034 0-.069-.035a4.13 4.13 0 0 0-.895-.105h-.172c-.309-.036-.585-.036-.895-.036h-.034c-.31 0-.619.036-.929.071h-.069c-.31.035-.585.105-.861.176-.068 0-.103.035-.172.035-.275.07-.55.176-.826.282h-.034c-.275.105-.585.246-.826.422l-.448.282v4.225c-.413.176-.86.316-1.273.457-.138.035-.275.106-.413.141l-.929.282c-.069.035-.173.035-.241.07s-.138.035-.207.035c-.31.106-.619.176-.895.247l-.413.105-1.342.317h-.069l-1.205.247c-.137.035-.275.035-.447.07l-.861.141c-.034 0-.103 0-.137.035l-.895.106c0-.071-.035-.106-.035-.176s-.034-.141-.068-.176c0-.035-.035-.106-.069-.141-.035-.071-.069-.106-.103-.176-.035-.035-.035-.071-.069-.141s-.104-.141-.138-.211c-.034-.035-.069-.071-.069-.106l-.31-.317c-.103-.105-.206-.176-.309-.281-.035-.036-.069-.036-.104-.071-.068-.07-.172-.105-.241-.176-.034-.035-.068-.035-.103-.07-.172-.106-.344-.211-.516-.282-.034 0-.034-.035-.069-.035-.206-.106-.413-.176-.619-.246-.069-.036-.104-.036-.173-.071-.103-.035-.206-.07-.309-.07-.069 0-.138-.035-.207-.035-.103-.036-.241-.036-.344-.071-.069 0-.103-.035-.172-.035-.207-.035-.413-.071-.654-.071-.069 0-.103 0-.172-.035-.138 0-.276-.035-.413-.035h-1.102c-.103 0-.172.035-.275.035s-.206.035-.275.035c-.104 0-.172.036-.241.036-.103 0-.207.035-.276.035-.103 0-.172.035-.24.035-.104.035-.207.035-.31.071-.069.035-.138.035-.207.07l-.585.211c-.103.035-.206.106-.31.141-.034.035-.103.035-.137.07l-.413.212c-.895.528-1.515 1.232-1.652 2.042l-1.24-.176c-.103-.036-.206-.036-.309-.036-.31-.035-.62-.105-.93-.176h-.034c-.103 0-.207-.035-.31-.07l-.895-.176-.482-.106c-.241-.07-.516-.105-.757-.176-.172-.035-.344-.105-.516-.141-.241-.07-.448-.14-.688-.176l-.551-.14-.654-.212c-.069-.035-.138-.035-.241-.07-.069-.035-.138-.035-.207-.071l-1.548-.563v-4.26c-.035-.035-.104-.07-.138-.105-.069-.036-.138-.071-.207-.141a4.91 4.91 0 0 0-.757-.352c-.069-.035-.172-.071-.241-.106l-.757-.246h-.034c-.276-.071-.551-.106-.826-.141-.104 0-.172-.035-.276-.035l-.86-.071h-.069l-.929.035h-.069l-.895.106c-.035 0-.103.035-.138.035-.275.035-.55.141-.826.211-.069.036-.172.071-.241.071a4.38 4.38 0 0 0-.723.282c-.103-.071-.172-.176-.275-.247l-.757-.774c-.069-.071-.138-.141-.172-.212l-.689-.845-.034-.035c-.034-.07-.103-.141-.138-.176l-.378-.528-.172-.282-.31-.528c-.035-.035-.069-.105-.103-.141s-.035-.105-.069-.14l-.241-.458c-.035-.106-.103-.211-.138-.317l-.206-.493-.104-.211c-.034-.035-.034-.106-.068-.176l-.035-9.013c-.034.106 0 .106 0 .106zm17.554 1.514c5.094 3.027 13.389 3.027 18.517 0a16.73 16.73 0 0 0 1.411-.986c-.137-.106-.241-.211-.413-.317-.034-.035-.069-.035-.103-.07-.275-.176-.551-.352-.826-.564-.275-.176-.585-.317-.895-.493-.069-.035-.138-.07-.241-.105-.275-.141-.551-.247-.86-.387-.035 0-.069-.036-.104-.036-.309-.105-.619-.246-.929-.317-.241-.07-.447-.14-.688-.211-.172-.035-.345-.105-.517-.141-.241-.07-.481-.105-.722-.14-.173-.036-.345-.071-.551-.106-.069 0-.138-.035-.207-.035-.309-.071-.585-.106-.895-.141-.068 0-.172-.035-.275-.035-.172-.035-.344-.035-.516-.035-.31-.036-.585-.036-.895-.071-.172 0-.379 0-.551-.035h-.723c-.206 0-.413 0-.585.035-.206 0-.447.035-.654.035s-.413.036-.619.036c-.207.035-.448.035-.654.07s-.379.035-.585.07l-.689.106-.55.106-.826.211c-.172.035-.345.07-.517.141-.103.035-.172.07-.275.07-.275.07-.516.176-.792.282-.068.035-.172.035-.241.105a14.35 14.35 0 0 0-.688.317c-.103.035-.241.106-.344.141-.344.176-.654.317-.964.493-.516.317-.998.669-1.411 1.021.447.352.895.669 1.377.986z" fill="#b7c0eb"/><path d="M225.322 265.128c0-.07-.035-.141-.069-.176 0-.035-.035-.07-.035-.141l-.103-.211c0-.035-.034-.07-.034-.106l-.207-.316-.035-.036c-.103-.105-.172-.211-.275-.316-.035-.036-.069-.071-.103-.071-.104-.106-.242-.211-.345-.282l-.034-9.012c.137.106.241.176.344.282l.035.035c.034 0 .034.035.034.035.103.106.207.211.276.317l.034.035v.035l.207.317v.035c0 .036.034.036.034.071l.104.211.034.035c0 .035 0 .035.034.071.035.07.035.14.069.176 0 .035 0 .035.035.07v.035c0 .071.034.141.034.212v.105l.035 8.872c0-.071 0-.141-.035-.211 0 0-.034-.036-.034-.071z" fill="url(#M)"/><path d="M254.094 254.461l.035 9.013c-.861.633-1.275 1.373-1.275 2.147l-.034-9.012c0-.775.413-1.514 1.274-2.148z" fill="url(#N)"/><path d="M217.182 276.605c0-.07-.034-.105-.034-.176 0-.035-.035-.07-.069-.141s-.069-.14-.069-.176c-.034-.035-.035-.07-.069-.105a.73.73 0 0 0-.138-.212c-.034-.035-.034-.07-.068-.105-.104-.106-.207-.247-.31-.352l-.069-.071c-.069-.07-.172-.14-.241-.211-.034-.035-.069-.07-.138-.07-.068-.071-.137-.106-.24-.176-.035-.036-.069-.036-.104-.071-.172-.105-.344-.211-.55-.281-.207-.106-.413-.176-.62-.247-.069 0-.103-.035-.172-.07-.103-.035-.206-.071-.31-.071-.068-.035-.137-.035-.206-.07-.103-.035-.241-.071-.344-.071-.069-.035-.104-.035-.172-.035-.207-.035-.413-.07-.654-.07-.138 0-.276-.035-.448-.035l-.034-9.013a1.38 1.38 0 0 1 .378.035h.069l.62.105h.034c.069 0 .138.036.172.036.104.035.207.035.276.07s.137.035.241.07.172.071.275.071c.034 0 .069 0 .069.035.034 0 .034.035.069.035.206.071.413.141.619.247l.551.281c.034 0 .034.036.068.036s.035.035.069.035c.069.035.172.105.241.176.035.035.069.07.138.07.103.071.172.141.241.211.034 0 .034.036.069.071.103.105.206.211.309.352l.035.035c0 .035.034.035.034.071.035.07.103.14.138.211 0 .035.034.035.034.07 0 0 0 .035.035.035.034.071.068.106.068.176 0 .036.035.071.035.106v.035c.034.071.034.106.034.176 0 .036.035.071.035.106v.035c0 .071 0 .141.034.176v.176l.035 8.837c0-.07 0-.14-.035-.176.103-.07.069-.141.069-.176z" fill="url(#O)"/><path d="M229.78 262.595l.964-.492c.103-.036.206-.106.344-.141.207-.071.379-.176.585-.282.035 0 .069-.035.103-.035.069-.035.138-.071.241-.106.241-.105.517-.176.792-.281l.275-.106c.069-.035.138-.035.172-.07a1.18 1.18 0 0 1 .345-.071l.791-.211c.069 0 .138-.035.241-.071s.207-.035.344-.07c.241-.035.448-.106.689-.141.103 0 .172-.035.275-.035s.207-.035.31-.035a4.14 4.14 0 0 1 .654-.071c.103 0 .206-.035.31-.035h.275c.241-.035.447-.035.654-.035h1.893a7.12 7.12 0 0 1 .86.07c.138 0 .241 0 .379.036.069 0 .103 0 .172.035.069 0 .172.035.241.035l.929.141c.069 0 .138.035.207.035.034 0 .069 0 .103.035l.448.106c.24.07.481.106.688.141.172.035.344.105.516.141l.689.211c.034 0 .103.035.137.035l.792.282c.034 0 .069.035.138.07l.826.352c.068.035.172.071.241.106l.894.457c.069.036.104.071.173.106a4.41 4.41 0 0 1 .653.458c.035.035.069.035.104.07.241.176.447.352.688.563.035.036.069.036.103.071l.104.105.481.493.104.106c.103.106.172.211.241.282s.103.176.172.246c.034.035.034.07.069.106a3.26 3.26 0 0 1 .275.457c.034.036.069.106.069.176.034.036.034.071.034.106.069.176.172.352.241.493 0 .035.035.07.035.141 0 .035.034.07.034.105.069.176.103.352.138.528 0 .036 0 .071.034.106v.106c.034.176.035.387.069.563v.106l.034 9.012a3.94 3.94 0 0 0-.069-.669v-.105c-.034-.211-.103-.423-.172-.634 0-.035 0-.07-.034-.106l-.241-.633c0-.035-.034-.071-.069-.106-.103-.211-.241-.422-.378-.634 0-.035-.035-.07-.069-.07-.138-.176-.276-.387-.448-.563-.034-.036-.069-.071-.069-.106-.172-.211-.378-.387-.585-.598-.034-.036-.068-.036-.068-.071l-.689-.563c-.034-.035-.069-.035-.103-.071l-.826-.563c-.275-.176-.585-.317-.895-.493-.069-.035-.138-.07-.241-.105l-.86-.388c-.035 0-.069-.035-.104-.035-.309-.105-.619-.246-.929-.317l-.688-.211c-.172-.035-.345-.106-.517-.141-.241-.07-.482-.105-.722-.141l-.551-.105c-.069 0-.138-.035-.207-.035-.309-.071-.585-.106-.895-.141-.068 0-.172-.035-.275-.035-.172-.036-.344-.036-.516-.036l-.895-.07c-.172 0-.379 0-.551-.035h-.723c-.206 0-.413 0-.585.035-.206 0-.447.035-.654.035s-.413.035-.619.035c-.207.036-.448.036-.654.071l-.585.07-.689.106-.55.105-.826.212c-.172.035-.345.07-.517.141-.103.035-.172.07-.275.07-.275.07-.516.176-.792.282-.068.035-.172.035-.241.105l-.688.317c-.103.035-.241.106-.344.141l-.964.493c-2.581 1.514-3.855 3.52-3.855 5.527l-.034-9.013c0-1.936 1.308-3.908 3.889-5.457z" fill="url(#P)"/><path d="M262.45 265.693l.688-.352c.035 0 .069-.035.104-.035s.034-.035.069-.035c.206-.106.447-.176.688-.246h.034c.035 0 .069 0 .069-.036l.482-.105c.069-.035.172-.035.241-.035s.103-.036.172-.036c.035 0 .103-.035.138-.035.172-.035.344-.035.551-.07h.241l.034 9.012a3.69 3.69 0 0 0-.895.106c-.069 0-.103.035-.172.035-.241.036-.482.106-.723.176-.034 0-.069 0-.103.036-.276.07-.516.176-.757.281-.035 0-.069.035-.069.035-.241.106-.482.212-.689.352-1.032.599-1.686 1.444-1.686 2.394l-.035-9.012c-.034-.951.585-1.796 1.618-2.43z" fill="url(#Q)"/><path d="M212.271 271.853c.068.141.137.282.172.458.034.105.103.211.172.317l.206.422c.069.106.103.211.172.317l.31.493.172.281.379.529c.069.07.103.14.172.211.206.281.447.563.688.845l.172.176.62.633.413.388.034 9.012c-.103-.07-.172-.176-.275-.246l-.138-.141-.619-.634c-.069-.07-.138-.14-.172-.211l-.689-.845c0-.035-.034-.035-.034-.035a.77.77 0 0 0-.138-.176l-.378-.528-.173-.282-.309-.528c-.035-.07-.069-.105-.104-.141s-.034-.105-.068-.14l-.241-.458c-.035-.106-.104-.211-.138-.317l-.206-.493-.104-.211c-.034-.035-.034-.106-.069-.176l-.034-9.013c.103.212.172.352.207.493z" fill="url(#R)"/><path d="M265.852 271.431l.035 9.013c-.689 1.936-1.997 3.838-3.889 5.527l-.035-9.012c1.893-1.69 3.201-3.591 3.889-5.528z" fill="#eff1fe"/><path d="M216.359 276.817l.344-.105c.069-.036.138-.071.241-.071.034 0 .069-.035.103-.035.207-.071.379-.106.585-.141.035 0 .069 0 .103-.035.035 0 .104 0 .138-.035.103 0 .207-.036.31-.071.172-.035.378-.035.55-.07h.104c.137 0 .309-.035.447-.035h.551c.206 0 .413.035.619.035.069 0 .138 0 .207.035.069 0 .172.035.275.035s.172.035.276.035l.55.106h.035c.172.035.309.106.481.141l.276.106c.069.035.172.07.241.105a5.05 5.05 0 0 1 .757.352c.034 0 .034.035.069.035.069.036.103.071.137.106.069.035.138.106.207.141s.103.07.172.141c.069.035.103.105.172.14l.034.036.069.07c.104.07.172.176.241.246l.069.071s.034.035.034.07c.035.071.104.141.138.212 0 .035.035.07.069.105 0 0 0 .035.034.035.035.071.069.141.069.176s.035.071.035.106v.035c.034.071.034.106.034.176 0 .035.034.071.034.106v.035c0 .07 0 .106.035.176v.141l.034 8.872c0-.071 0-.141-.034-.176 0-.036-.035-.106-.035-.176s-.034-.106-.034-.176-.034-.106-.069-.141c-.034-.071-.069-.106-.069-.176-.034-.036-.034-.071-.068-.141s-.069-.141-.138-.176l-.103-.106c-.069-.07-.138-.176-.241-.246l-.104-.106c-.068-.07-.103-.105-.172-.141a.62.62 0 0 1-.172-.14c-.069-.071-.137-.106-.206-.141s-.138-.071-.207-.141c-.241-.141-.482-.247-.757-.352-.069-.035-.172-.071-.241-.106-.241-.105-.482-.176-.757-.246h-.034l-.826-.176c-.104 0-.172-.035-.276-.035l-.86-.071h-.069l-.929.035h-.069l-.895.106c-.034 0-.103 0-.138.035l-.826.211c-.068.036-.172.036-.241.071a4.46 4.46 0 0 0-.722.281l-.035-9.012c.172-.035.31-.106.448-.141z" fill="url(#S)"/><path d="M254.367 277.205c.276-.141.517-.282.827-.388.034 0 .068 0 .068-.035l.62-.211c.069 0 .103-.035.172-.035s.138-.036.172-.036c.069-.035.172-.035.241-.07l.551-.106h.137c.138 0 .276-.035.413-.035.173 0 .345-.035.517-.035h.654c.103 0 .206 0 .31.035h.309l.723.106h.103l.861.211c.034 0 .069 0 .103.035h.034l.827.317.034 9.013c-.275-.141-.551-.246-.861-.352-.034 0-.068 0-.068-.035-.276-.106-.551-.176-.861-.211h-.069a4.07 4.07 0 0 0-.895-.106h-.172c-.309-.035-.585-.035-.895-.035h-.034c-.31 0-.62.035-.929.07h-.069c-.31.035-.585.106-.861.176-.068 0-.103.036-.172.036-.275.07-.55.176-.826.281h-.034c-.276.106-.585.247-.826.423-1.136.669-1.687 1.514-1.687 2.394l-.034-9.013c-.069-.845.482-1.726 1.617-2.394z" fill="url(#T)"/><path d="M223.943 281.711l1.549.563c.138.036.275.106.413.141l.688.211c.172.036.344.106.517.141l.722.211a2.58 2.58 0 0 1 .482.141 5.14 5.14 0 0 0 .792.176l.447.106.929.176c.104 0 .207.035.31.07l.929.176c.104 0 .207.036.31.036l1.239.176.035 9.012c-.413-.035-.826-.105-1.239-.176-.104-.035-.207-.035-.31-.035l-.929-.141h-.035c-.103-.035-.206-.035-.31-.07l-.894-.176-.482-.106c-.241-.07-.517-.105-.757-.176-.173-.035-.345-.105-.517-.141-.241-.07-.447-.14-.688-.176-.172-.035-.344-.105-.551-.176l-.654-.211c-.068-.035-.137-.035-.241-.07-.068-.036-.137-.036-.206-.071l-1.549-.563v-9.048z" fill="url(#U)"/><path d="M234.915 281.991l.413-.211c.035-.035.069-.035.138-.071.103-.035.207-.105.31-.14l.619-.212c.035 0 .035-.035.069-.035s.103-.035.138-.035l.344-.106c.034 0 .069-.035.138-.035h.103c.103-.035.172-.035.275-.035.069 0 .104-.035.172-.035h.104c.069 0 .172-.036.241-.036s.137 0 .172-.035h.137c.104 0 .172 0 .276-.035h.86c.138 0 .275.035.379.035h.206l.62.106h.034c.069 0 .103.035.138.035.103.035.241.035.344.07.069 0 .138.036.206.071.104.035.207.035.276.07.034 0 .069 0 .103.035.034 0 .034.036.069.036.206.07.413.14.619.246.035 0 .035.035.069.035l.551.282c.034 0 .034.035.069.035 0 0 .034 0 .034.035.103.071.172.106.241.176.035.036.069.036.103.071.104.07.207.176.31.282l.034.035c.104.105.207.211.276.317l.034.035s.035.035.035.07c.034.071.103.141.137.211 0 .036.035.036.035.071 0 0 0 .035.034.035.035.07.069.141.069.176s.034.071.034.106v.035c.035.07.035.141.069.176 0 .035.035.07.035.106v.07l.034 9.013c0-.07-.034-.105-.034-.176s-.035-.106-.069-.176c0-.035-.035-.07-.069-.141s-.069-.141-.103-.176-.035-.07-.069-.141-.103-.14-.138-.211c-.034-.035-.069-.07-.069-.106l-.309-.316c-.104-.106-.207-.176-.31-.282-.035-.035-.069-.035-.103-.07-.069-.071-.172-.106-.241-.176-.035-.036-.069-.036-.103-.071l-.517-.282c-.034 0-.034-.035-.069-.035-.206-.105-.413-.176-.619-.246-.069-.035-.103-.035-.172-.071l-.31-.105c-.069 0-.138-.035-.206-.035-.104-.036-.241-.036-.345-.071-.068 0-.103-.035-.172-.035-.206-.035-.413-.071-.654-.071-.068 0-.103.001-.172-.035-.137 0-.275 0-.413-.035h-.826c-.103 0-.172 0-.275.035-.103 0-.172 0-.275.035-.104 0-.207.036-.276.036-.103 0-.172 0-.241.035a.64.64 0 0 0-.275.07c-.103 0-.172.036-.241.036-.103.035-.206.07-.31.07-.068.035-.137.035-.206.07l-.585.212c-.104.035-.207.105-.31.14-.034.036-.103.036-.138.071l-.413.211c-.895.528-1.514 1.268-1.652 2.042l-.034-9.013c.103-.81.723-1.514 1.617-2.042z" fill="url(#V)"/><path d="M245.648 283.859l.826-.141c.137-.035.309-.035.447-.071l1.101-.211c.069 0 .104-.035.173-.035.447-.07.894-.176 1.342-.317l.413-.106.895-.246c.172-.035.309-.106.481-.141l.93-.281c.137-.036.275-.071.378-.141l1.308-.458.035 9.013c-.413.176-.861.317-1.274.457-.138.036-.275.106-.413.141l-.929.282a.63.63 0 0 1-.241.07c-.069.035-.138.035-.207.071l-.894.246-.413.106-1.343.317h-.068l-1.205.246c-.138.035-.275.035-.447.07l-.861.141c-.034 0-.103 0-.138.035l-.894.106-.035-9.013 1.033-.14z" fill="#eff1fe"/><path d="M223.552 277.205c2.065 1.232 2.203 3.168.378 4.506 2.892 1.127 6.058 1.901 9.328 2.289.138-.775.757-1.514 1.652-2.042 1.032-.599 2.444-.986 4.027-.986 2.96 0 5.369 1.338 5.645 3.028 3.269-.423 6.47-1.162 9.361-2.289-1.824-1.338-1.686-3.274.413-4.506s5.37-1.303 7.607-.247c1.893-1.725 3.201-3.591 3.889-5.527-2.856-.176-5.094-1.62-5.094-3.345 0-.951.654-1.76 1.687-2.394.895-.528 2.099-.88 3.442-.951-.689-1.936-1.962-3.837-3.855-5.527-2.237 1.091-5.542.986-7.607-.247s-2.202-3.168-.378-4.506c-2.891-1.127-6.058-1.901-9.328-2.289-.137.775-.757 1.514-1.652 2.042-1.032.599-2.444.986-4.027.986-2.96 0-5.335-1.338-5.644-3.028-3.305.423-6.471 1.162-9.362 2.289 1.824 1.302 1.686 3.274-.413 4.506s-5.37 1.303-7.607.247c-1.893 1.725-3.201 3.591-3.889 5.527 2.857.176 5.094 1.585 5.094 3.345 0 .915-.654 1.76-1.687 2.394-.895.528-2.099.88-3.442.986.689 1.936 1.962 3.837 3.855 5.527 2.237-1.091 5.542-1.021 7.607.212zm24.678-3.627c-5.128 3.028-13.423 3.028-18.517 0s-5.06-7.957.069-10.984 13.423-3.028 18.517 0 5.059 7.956-.069 10.984z" fill="url(#W)"/><path d="M248.847 342.109v-3.978c.413-1.162 1.205-2.288 2.341-3.309 1.308.633 3.304.598 4.543-.141.103-.071.172-.106.241-.176v-2.535c1.721-.669 3.614-1.127 5.576-1.373.172 1.021 1.618 1.795 3.373 1.795.929 0 1.79-.246 2.409-.598.551-.317.895-.739.964-1.232 1.962.246 3.855.704 5.576 1.373v2.535c.069.035.138.105.206.14 1.24.74 3.201.775 4.544.141 1.136 1.021 1.893 2.148 2.306 3.31v5.386h-.035v3.978c-.413 1.162-1.204 2.289-2.34 3.31l-.516-.211H278c-.172-.071-.344-.106-.516-.141h-.035c-.172-.035-.344-.071-.55-.071h-.103c-.173 0-.345-.035-.551 0-.207 0-.379.036-.551.036h-.034l-.517.105c-.034 0-.068 0-.103.035-.172.036-.344.106-.482.141h-.034c-.172.071-.344.141-.482.247-.103.035-.172.105-.241.176v2.499c-.241.106-.516.176-.757.282-.069.035-.172.035-.241.07-.172.071-.379.106-.551.176-.034 0-.103.036-.137.036s-.069.035-.138.035l-.551.141c-.069.035-.172.035-.241.07l-.791.176h-.035c-.241.071-.482.106-.723.141-.068 0-.172.035-.241.035-.172.035-.344.071-.516.071h-.069c-.172.035-.344.035-.55.07 0-.035 0-.07-.035-.106 0-.035-.034-.07-.034-.105s-.035-.035-.035-.071-.034-.07-.068-.105c0-.035-.035-.035-.035-.071-.034-.035-.034-.07-.069-.105 0-.036-.034-.036-.034-.071-.069-.07-.103-.141-.172-.176-.069-.07-.138-.105-.207-.176-.034 0-.034-.035-.069-.035-.034-.035-.103-.07-.137-.106 0 0-.035-.035-.069-.035-.103-.07-.207-.105-.31-.176 0 0-.034 0-.034-.035-.104-.035-.241-.106-.379-.141-.034 0-.069-.035-.103-.035-.069 0-.103-.035-.172-.035-.035 0-.069-.036-.103-.036-.069 0-.138-.035-.207-.035-.034 0-.069 0-.103-.035-.138-.035-.241-.035-.379-.035h-1.17c-.069 0-.103 0-.172.035-.069 0-.103.035-.172.035s-.104 0-.172.035c-.069 0-.104.036-.138.036-.069 0-.138.035-.207.035-.034 0-.068.035-.137.035-.138.035-.241.071-.344.141-.069.035-.138.07-.173.07s-.068.036-.068.036c-.069.035-.172.07-.241.14-.551.317-.895.74-.998 1.197l-.758-.105c-.069 0-.103-.035-.172-.035l-.55-.106c-.069 0-.138-.035-.207-.035l-.551-.106c-.103-.035-.172-.035-.275-.07l-.447-.106c-.104-.035-.207-.07-.31-.07l-.413-.106-.31-.106c-.138-.035-.275-.07-.379-.14-.034 0-.103-.036-.137-.036s-.069-.035-.104-.035l-.929-.317v-2.534c-.034-.036-.069-.036-.103-.071s-.069-.07-.138-.07l-.447-.212c-.035-.035-.104-.035-.138-.07-.138-.07-.275-.106-.447-.141h-.035l-.482-.105c-.069 0-.103 0-.172-.036-.172-.035-.344-.035-.516-.035h-.62c-.172 0-.344.035-.55.071-.035 0-.069 0-.069.035l-.482.105c-.034 0-.103.036-.138.036-.137.07-.309.105-.447.176-.069-.036-.103-.106-.172-.141-.035-.035-.069-.035-.069-.071l-.482-.492-.413-.493s0-.036-.034-.036c-.035-.035-.035-.07-.069-.105-.069-.106-.172-.211-.241-.317-.035-.07-.069-.106-.103-.176-.069-.106-.138-.211-.172-.317 0-.035-.035-.07-.069-.106 0-.035-.035-.07-.035-.07-.034-.106-.103-.176-.137-.282-.035-.07-.069-.105-.069-.176l-.103-.281c0-.035-.035-.071-.069-.141 0-.035-.035-.071-.035-.106l-.069-5.281c-.034 0 0 0 0 0zm10.464.916c3.029 1.795 7.985 1.795 11.048 0 .31-.176.585-.388.861-.599-.069-.07-.138-.141-.241-.176-.035 0-.035-.035-.069-.035-.172-.106-.31-.211-.482-.317s-.344-.211-.516-.282c-.035-.035-.104-.035-.138-.07l-.516-.211c-.035 0-.035 0-.069-.035-.172-.071-.379-.141-.551-.212l-.413-.105c-.103-.035-.206-.071-.31-.071l-.413-.105c-.103-.035-.206-.035-.309-.071-.035 0-.104 0-.138-.035-.172-.035-.344-.07-.551-.07-.034 0-.103 0-.172-.035-.103 0-.206-.036-.31-.036-.172 0-.344-.035-.55-.035h-1.515c-.137 0-.241 0-.378.035-.138 0-.276.036-.379.036-.103.035-.241.035-.344.07-.138.035-.275.035-.413.07-.103.036-.207.036-.31.071l-.482.105c-.103.036-.206.071-.31.071-.068 0-.103.035-.172.035-.172.035-.309.106-.482.176-.034 0-.103.035-.137.035-.138.071-.276.141-.413.176l-.207.106c-.206.105-.378.211-.585.317-.31.176-.585.387-.86.598.275.211.55.423.826.599z" fill="#b7c0eb"/><path d="M256.715 337.991c0-.036-.035-.071-.035-.106s0-.035-.034-.07c0-.036-.035-.071-.069-.141 0-.035-.034-.035-.034-.071-.035-.07-.069-.14-.138-.176h-.035c-.034-.07-.103-.141-.172-.176l-.034-.035c-.069-.07-.138-.106-.207-.176v-5.388c.069.071.138.106.207.177l.034.035v.035l.172.176c.035.07.104.141.138.176 0 0 0 .035.035.035.034.035.034.071.068.106v.07c0 .036.035.071.035.106v5.493c.069-.035.069-.07.069-.07z" fill="url(#X)"/><path d="M273.891 331.615l.035 5.388c-.517.387-.758.81-.758 1.267v-5.387c-.069-.458.207-.915.723-1.268z" fill="url(#Y)"/><path d="M251.859 344.82c0-.035-.034-.07-.034-.106s-.034-.035-.034-.07-.035-.071-.035-.106-.034-.035-.034-.07c-.035-.035-.035-.071-.069-.141l-.069-.07c-.069-.071-.103-.141-.172-.212l-.034-.035c-.035-.035-.104-.07-.138-.141-.034 0-.034-.035-.069-.035-.034-.035-.103-.07-.138-.106-.034 0-.034-.035-.068-.035-.104-.07-.207-.105-.31-.176-.103-.035-.241-.105-.379-.141-.034 0-.068-.035-.103-.035-.069 0-.103-.035-.172-.035-.034 0-.069-.035-.138-.035-.068-.036-.137-.036-.206-.036-.035 0-.069 0-.103-.035-.138-.035-.241-.035-.379-.07-.103 0-.172 0-.275-.035l-.035-5.388h.276c.137 0 .241.036.378.071.035 0 .069 0 .103.035.069 0 .104.035.173.035.034 0 .103.035.137.035.069 0 .103.036.172.071h.069c.138.035.241.105.379.141.103.07.206.105.309.176h.035c.034 0 .034.035.034.035.069.035.103.07.138.106.034 0 .069.035.069.07.069.035.103.07.137.141l.035.035a.94.94 0 0 1 .172.211l.034.036s0 .035.035.035c.034.035.069.07.069.105 0 0 0 .036.034.036v.035c.034.035.034.07.034.105s.035.036.035.071v.035c0 .035.034.07.034.106v5.493c.138-.036.103-.071.103-.106z" fill="url(#Z)"/><path d="M259.353 336.477a8.4 8.4 0 0 1 .585-.317l.206-.106c.104-.07.241-.105.345-.141.034 0 .034 0 .068-.035.035 0 .104-.035.138-.07.138-.071.31-.106.482-.176.069 0 .103-.036.172-.071.034 0 .069-.035.103-.035.069-.035.138-.035.207-.035.172-.035.309-.106.482-.106.034 0 .103-.035.137-.035.069 0 .138-.035.207-.035.137-.035.275-.035.413-.071.069 0 .103-.035.172-.035s.137 0 .172-.035c.138 0 .275-.035.378-.035.069 0 .138-.035.173-.035h.172c.137 0 .275 0 .413-.036h1.17c.172 0 .344.036.516.036h.31c.034 0 .103 0 .137.035.172.035.379.035.551.07.034 0 .069 0 .103.035h.069c.103 0 .172.036.275.071l.413.105c.104.036.207.071.31.071l.413.105c.035 0 .069 0 .069.036l.482.176c.034 0 .034.035.069.035l.482.211c.034.035.103.035.137.071l.516.281c.035.035.069.035.104.071.137.07.275.176.413.281 0 0 .034.036.068.036l.413.316c.035 0 .035.036.035.036l.069.07c.103.106.206.176.275.282l.069.07c.069.07.103.106.138.176a.46.46 0 0 0 .103.141c0 .035.034.035.034.07.069.071.103.176.172.282 0 .035.035.07.035.106 0 0 .034.035.034.07.035.106.103.211.138.317 0 .035 0 .035.034.07 0 .036 0 .036.035.071.034.105.068.211.068.317v.14c0 .106.035.212.035.353v5.457c0-.141 0-.282-.035-.423v-.07c-.034-.141-.034-.247-.103-.387 0-.036 0-.036-.034-.071-.035-.141-.103-.246-.138-.387 0-.035-.034-.035-.034-.071l-.207-.387-.034-.035c-.069-.106-.172-.211-.241-.317 0-.035-.035-.035-.035-.07l-.344-.352-.034-.036-.413-.317c-.035 0-.035-.035-.069-.035l-.482-.317c-.172-.105-.344-.211-.516-.281-.034-.035-.103-.035-.138-.071l-.516-.211c-.034 0-.034 0-.069-.035l-.55-.211-.413-.106c-.104-.035-.207-.07-.31-.07l-.413-.106c-.103-.035-.207-.035-.31-.07-.034 0-.103 0-.138-.036a2.63 2.63 0 0 0-.55-.07c-.035 0-.103 0-.172-.035-.104 0-.207-.035-.31-.035-.172 0-.344-.036-.551-.036h-1.514c-.138 0-.241 0-.379.036-.137 0-.275.035-.378.035-.103.035-.241.035-.344.07-.138.035-.276.035-.413.071-.104.035-.207.035-.31.07l-.482.106c-.103.035-.206.07-.31.07-.068 0-.103.035-.172.035-.172.035-.309.106-.482.176-.034 0-.103.035-.137.035-.138.071-.276.141-.413.177l-.207.105-.585.317c-1.548.915-2.306 2.112-2.306 3.31v-5.387c-.034-1.127.758-2.324 2.272-3.239z" fill="url(#a)"/><path d="M278.88 338.343l.413-.211c.035 0 .035-.035.069-.035h.035c.137-.07.275-.106.413-.141h.068c.104-.035.207-.035.31-.07.069 0 .103-.035.138-.035h.172c.103 0 .206-.036.31-.036h.137v5.387c-.172 0-.378.035-.55.07h-.104l-.447.106h-.069c-.172.035-.31.105-.482.176 0 0-.034 0-.034.035l-.413.211c-.62.352-.998.88-.998 1.408v-5.386c.034-.634.413-1.127 1.032-1.479z" fill="url(#b)"/><path d="M248.923 341.969l.103.282c.035.07.069.141.103.176.035.105.069.176.138.281.034.071.069.106.103.177.069.105.104.211.172.316.035.071.069.106.104.176.069.106.137.212.241.317.034.036.068.071.103.141l.413.493.103.106c.103.141.241.246.379.387.069.07.172.141.241.246l.034 5.387c-.069-.035-.103-.105-.172-.141l-.069-.07-.378-.387-.104-.106-.413-.493-.034-.035c-.035-.035-.035-.07-.069-.106-.069-.105-.172-.211-.241-.317-.034-.07-.069-.105-.103-.176-.069-.105-.138-.211-.172-.316 0-.036-.035-.071-.069-.106 0-.035-.035-.07-.035-.07-.034-.106-.103-.177-.137-.282-.035-.071-.069-.106-.069-.176l-.103-.282c0-.035-.035-.105-.069-.141 0-.035-.035-.07-.035-.105v-5.387c-.034.07 0 .141.035.211z" fill="url(#c)"/><path d="M280.906 341.758v5.387c-.413 1.162-1.204 2.288-2.34 3.309v-5.387c1.136-1.056 1.927-2.182 2.34-3.309z" fill="#eff1fe"/><path d="M251.371 344.96c.069-.036.138-.036.206-.071.035 0 .104-.035.138-.035s.034-.035.069-.035l.344-.106h.138c.069 0 .137-.035.172-.035.103 0 .206-.035.344-.035h.688c.138 0 .276 0 .379.035.034 0 .069 0 .138.035.034 0 .103 0 .137.035.069 0 .104 0 .172.036.104.035.241.035.345.07h.034c.103.035.172.07.275.07.069.036.104.036.172.071.035.035.104.035.138.07a5.43 5.43 0 0 1 .447.212s.035 0 .035.035c.034 0 .069.035.103.07s.069.071.138.071c.034.035.069.035.103.07s.069.07.103.07l.035.036.137.141.035.035s0 .035.034.035c.035.035.069.07.069.106l.034.035v.035c0 .035.035.07.035.106 0 0 .034.035.034.07s.035.071.035.106v5.493c0-.035 0-.071-.035-.106 0-.035 0-.07-.034-.105 0-.036-.035-.071-.035-.071 0-.035-.034-.07-.034-.106s-.034-.07-.034-.07c-.035-.035-.069-.07-.069-.106-.035-.035-.035-.07-.069-.07-.034-.035-.069-.106-.138-.141-.034 0-.034-.035-.069-.07l-.103-.106c-.034-.035-.069-.035-.103-.07s-.069-.071-.138-.071c-.034-.035-.069-.07-.137-.07l-.448-.211c-.034-.036-.103-.036-.137-.036a1.73 1.73 0 0 0-.448-.141h-.034l-.482-.105c-.069 0-.103-.035-.172-.035-.172 0-.344-.036-.516-.036h-.62c-.172 0-.344.036-.551.071h-.069l-.481.105c-.035 0-.104.036-.138.071a2.34 2.34 0 0 0-.447.176l-.035-5.387c.138-.106.207-.141.31-.141z" fill="url(#d)"/><path d="M274.028 345.207c.137-.105.31-.176.482-.246h.034c.103-.036.241-.071.379-.141.034 0 .069 0 .103-.035.034 0 .069-.036.103-.036.035-.035.103-.035.138-.035.103-.035.206-.035.344-.07h.103c.069 0 .172-.035.241-.035.104 0 .207 0 .31-.036h.723c.137 0 .31.036.447.071h.069c.172.035.344.07.516.141h.104c.172.07.344.105.481.211v5.388l-.516-.212h-.034c-.172-.07-.344-.105-.517-.141h-.034c-.172-.035-.344-.07-.551-.07h-.654c-.206 0-.378.035-.55.035h-.035l-.516.106c-.034 0-.069 0-.103.035-.172.035-.344.106-.482.141-.172.07-.344.141-.516.246-.654.388-.999.916-.999 1.444v-5.388c-.068-.493.276-.986.93-1.373z" fill="url(#e)"/><path d="M255.889 347.882l.929.317a.63.63 0 0 0 .241.07c.137.035.275.106.413.141l.31.105.413.106c.103.035.206.07.309.07l.448.106c.103 0 .172.035.275.071l.551.105c.069 0 .137.035.172.035l.55.106c.069 0 .138.035.173.035l.757.106v5.387l-.757-.106c-.069 0-.104 0-.173-.035l-.55-.105c-.069 0-.138-.036-.207-.036l-.55-.105c-.104-.035-.172-.035-.276-.071l-.447-.105c-.103-.036-.207-.071-.31-.071l-.413-.105-.31-.106-.378-.106c-.035-.035-.103-.035-.138-.035s-.069-.035-.103-.035l-.929-.317v-5.422z" fill="url(#f)"/><path d="M262.417 348.022c.068-.035.172-.106.24-.141.035 0 .035-.035.069-.035.069-.036.104-.071.172-.071.104-.035.241-.07.379-.141h.103c.069-.035.138-.035.207-.035.034 0 .069 0 .069-.035h.068c.069 0 .104-.035.172-.035h1.136a.66.66 0 0 1 .241.035h.138c.137 0 .241.035.378.07h.035c.034 0 .034 0 .069.036.068 0 .137.035.206.035.034 0 .069.035.103.035.069 0 .104.035.172.035h.104c.137.071.275.106.378.141h.035c.103.071.206.106.309.176 0 0 .035 0 .035.035.069.036.103.071.172.106.034 0 .034.035.069.035.069.035.137.106.172.141.069.071.137.141.172.211 0 0 0 .036.034.036 0 0 0 .035.035.035.034.035.069.07.103.141 0 0 0 .035.034.035v.035c0 .035.035.071.069.106 0 .035.035.035.035.07v.035c0 .036.034.071.034.106v5.493c0-.035 0-.07-.034-.105 0-.036-.035-.071-.035-.106s-.034-.035-.034-.071-.035-.07-.069-.105c0-.035-.034-.035-.034-.071-.035-.035-.035-.07-.069-.105 0-.035-.035-.035-.035-.071-.068-.07-.103-.14-.172-.211s-.137-.106-.206-.176c-.035 0-.035-.035-.069-.035-.034-.035-.103-.071-.138-.106 0 0-.034-.035-.069-.035-.103-.07-.206-.106-.309-.176 0 0-.035 0-.035-.035-.103-.036-.241-.106-.378-.141-.035 0-.069 0-.104-.035-.068 0-.103-.036-.172-.071-.034 0-.069 0-.103-.035-.069 0-.138-.035-.206-.035h-.104c-.137-.035-.241-.035-.378-.071h-.103c-.104 0-.173 0-.241-.035h-.826c-.069 0-.104 0-.172.035-.069 0-.104 0-.173.036-.068 0-.103.035-.172.035s-.103.035-.137.035c-.069 0-.138.035-.207.035-.034 0-.069.035-.137.035a1.05 1.05 0 0 0-.345.141c-.068.035-.137.071-.172.071s-.069.035-.069.035c-.068.035-.172.07-.24.141-.551.317-.895.739-.999 1.197v-5.388c.104-.528.482-.95.999-1.267z" fill="url(#g)"/><path d="M268.817 349.149c.173-.035.31-.07.482-.07.104 0 .172-.035.276-.035.206-.036.447-.071.653-.141.035 0 .069 0 .104-.036l.791-.176c.069-.035.172-.035.241-.07l.551-.141c.103-.035.172-.035.275-.07.172-.071.379-.106.551-.176.069-.035.172-.035.241-.071l.791-.281v5.387a6.56 6.56 0 0 1-.757.281c-.069.035-.172.035-.241.071-.172.07-.378.105-.55.176-.035.035-.104.035-.138.035s-.069.035-.138.035l-.55.141c-.069.035-.172.035-.241.07l-.792.176h-.034c-.241.071-.482.106-.723.141-.069 0-.172.035-.241.035-.172.036-.344.071-.516.071h-.069c-.172.035-.344.035-.551.07v-5.387c.172.036.379 0 .585-.035z" fill="#eff1fe"/><path d="M255.687 345.207c1.239.739 1.308 1.901.206 2.675 1.721.669 3.614 1.127 5.576 1.373.069-.457.447-.88.998-1.197.62-.352 1.48-.598 2.409-.598 1.756 0 3.201.774 3.373 1.795 1.962-.246 3.855-.704 5.576-1.373-1.067-.774-.998-1.936.241-2.675s3.201-.775 4.543-.141c1.136-1.021 1.894-2.148 2.341-3.31-1.721-.105-3.029-.95-3.029-2.006 0-.564.379-1.056.998-1.409.551-.316 1.239-.528 2.065-.563-.413-1.162-1.17-2.288-2.306-3.309-1.342.634-3.304.598-4.543-.141s-1.308-1.901-.206-2.711c-1.721-.669-3.614-1.126-5.576-1.373-.069.458-.448.88-.964 1.232-.62.352-1.48.599-2.409.599-1.756 0-3.201-.775-3.373-1.796-1.962.247-3.855.705-5.576 1.373 1.067.775.998 1.937-.241 2.711-1.239.74-3.201.775-4.543.141-1.136 1.021-1.928 2.148-2.341 3.309 1.721.106 3.029.951 3.029 2.007 0 .563-.379 1.056-.998 1.408-.551.317-1.239.528-2.065.564.413 1.161 1.17 2.288 2.271 3.309 1.343-.704 3.305-.669 4.544.106zm14.696-2.183c-3.063 1.795-8.019 1.795-11.048 0s-3.029-4.753.034-6.548 8.02-1.796 11.049 0c3.063 1.795 3.029 4.717-.035 6.548z" fill="url(#h)"/><defs><linearGradient id="D" x1="805.5" y1="3.5" x2="-1" y2="402.5" xlink:href="#i"><stop stop-color="#27ebc8"/><stop offset="1" stop-color="#07ba9a"/></linearGradient><linearGradient id="E" x1="797.464" y1="9" x2="32.234" y2="450.224" xlink:href="#i"><stop stop-color="#70c4f3"/><stop offset="1" stop-color="#139ae4"/></linearGradient><linearGradient id="F" x1="797.464" y1="9" x2="32.234" y2="450.224" xlink:href="#i"><stop stop-color="#be75ee"/><stop offset="1" stop-color="#9636d5"/></linearGradient><linearGradient id="G" x1="415.378" y1="368.587" x2="415.378" y2="231.85" xlink:href="#i"><stop stop-color="#dde5fe"/><stop offset=".58" stop-color="#e6ecfa"/><stop offset="1" stop-color="#f4f7ff"/></linearGradient><linearGradient id="H" x1="404.485" y1="368.565" x2="426.444" y2="368.565" xlink:href="#i"><stop stop-color="#eff1fe"/><stop offset="1" stop-color="#e4e7fb"/></linearGradient><linearGradient id="I" x1="447.852" y1="297.931" x2="430.351" y2="252.321" xlink:href="#i"><stop stop-color="#f1f4fe"/><stop offset=".58" stop-color="#f7f9fe"/><stop offset="1" stop-color="#fff"/></linearGradient><linearGradient id="J" x1="339.626" y1="83.246" x2="548.316" y2="83.246" xlink:href="#i"><stop stop-color="#f1f4fe"/><stop offset=".58" stop-color="#f7f9fe"/><stop offset="1" stop-color="#fff"/></linearGradient><linearGradient id="K" x1="544.111" y1="138.164" x2="557.403" y2="160.001" xlink:href="#i"><stop stop-color="#fff"/><stop offset=".728" stop-color="#eceefc"/><stop offset="1" stop-color="#e4e7fb"/></linearGradient><linearGradient id="L" x1="463.226" y1="289.134" x2="375.961" y2="289.134" xlink:href="#i"><stop stop-color="#dae2fe"/><stop offset=".552" stop-color="#eef3ff"/><stop offset="1" stop-color="#f7f8ff"/></linearGradient><linearGradient id="M" x1="225.381" y1="260.026" x2="224.093" y2="260.026" xlink:href="#i"><stop stop-color="#e4e7fb"/></linearGradient><linearGradient id="N" x1="254.125" y1="260.044" x2="252.816" y2="260.044" xlink:href="#i"><stop stop-color="#e4e7fb"/></linearGradient><linearGradient id="O" x1="217.256" y1="270.928" x2="212.157" y2="270.928" xlink:href="#i"><stop stop-color="#e4e7fb"/></linearGradient><linearGradient id="P" x1="252.13" y1="268.745" x2="225.909" y2="268.745" xlink:href="#i"><stop stop-color="#b7c0eb"/><stop offset=".532" stop-color="#e4e7fb"/></linearGradient><linearGradient id="Q" x1="265.925" y1="270.934" x2="260.786" y2="270.934" xlink:href="#i"><stop stop-color="#e4e7fb"/></linearGradient><linearGradient id="R" x1="215.991" y1="278.719" x2="212.124" y2="278.719" xlink:href="#i"><stop stop-color="#eff1fe"/><stop offset="1" stop-color="#e4e7fb"/></linearGradient><linearGradient id="S" x1="225.239" y1="282.413" x2="215.959" y2="282.413" xlink:href="#i"><stop stop-color="#e4e7fb"/></linearGradient><linearGradient id="T" x1="261.998" y1="282.429" x2="252.686" y2="282.429" xlink:href="#i"><stop stop-color="#e4e7fb"/></linearGradient><linearGradient id="U" x1="233.301" y1="287.375" x2="223.943" y2="287.375" xlink:href="#i"><stop stop-color="#eff1fe"/><stop offset="1" stop-color="#e4e7fb"/></linearGradient><linearGradient id="V" x1="244.603" y1="287.01" x2="233.272" y2="287.01" xlink:href="#i"><stop stop-color="#e4e7fb"/></linearGradient><linearGradient id="W" x1="248.546" y1="251.191" x2="228.815" y2="284.602" xlink:href="#i"><stop stop-color="#f1f4fe"/><stop offset=".58" stop-color="#f7f9fe"/><stop offset="1" stop-color="#fff"/></linearGradient><linearGradient id="X" x1="256.745" y1="334.934" x2="255.979" y2="334.934" xlink:href="#i"><stop stop-color="#e4e7fb"/></linearGradient><linearGradient id="Y" x1="273.895" y1="334.944" x2="273.112" y2="334.944" xlink:href="#i"><stop stop-color="#e4e7fb"/></linearGradient><linearGradient id="Z" x1="251.907" y1="341.438" x2="248.863" y2="341.438" xlink:href="#i"><stop stop-color="#e4e7fb"/></linearGradient><linearGradient id="a" x1="272.697" y1="340.139" x2="257.059" y2="340.139" xlink:href="#i"><stop stop-color="#b7c0eb"/><stop offset=".532" stop-color="#e4e7fb"/></linearGradient><linearGradient id="b" x1="280.933" y1="341.44" x2="277.869" y2="341.44" xlink:href="#i"><stop stop-color="#e4e7fb"/></linearGradient><linearGradient id="c" x1="251.137" y1="346.087" x2="248.832" y2="346.087" xlink:href="#i"><stop stop-color="#eff1fe"/><stop offset="1" stop-color="#e4e7fb"/></linearGradient><linearGradient id="d" x1="256.661" y1="348.285" x2="251.122" y2="348.285" xlink:href="#i"><stop stop-color="#e4e7fb"/></linearGradient><linearGradient id="e" x1="278.589" y1="348.298" x2="273.037" y2="348.298" xlink:href="#i"><stop stop-color="#e4e7fb"/></linearGradient><linearGradient id="f" x1="261.472" y1="351.247" x2="255.892" y2="351.247" xlink:href="#i"><stop stop-color="#eff1fe"/><stop offset="1" stop-color="#e4e7fb"/></linearGradient><linearGradient id="g" x1="268.205" y1="351.03" x2="261.445" y2="351.03" xlink:href="#i"><stop stop-color="#e4e7fb"/></linearGradient><linearGradient id="h" x1="270.577" y1="329.665" x2="258.809" y2="349.593" xlink:href="#i"><stop stop-color="#f1f4fe"/><stop offset=".58" stop-color="#f7f9fe"/><stop offset="1" stop-color="#fff"/></linearGradient><linearGradient id="i" gradientUnits="userSpaceOnUse"/><filter id="C" x="291.266" y="73.46" width="164.468" height="224.259" filterUnits="userSpaceOnUse" color-interpolation-filters="sRGB"><feFlood flood-opacity="0" result="A"/><feColorMatrix in="SourceAlpha" values="0 0 0 0 0 0 0 0 0 0 0 0 0 0 0 0 0 0 127 0"/><feOffset dy="4"/><feGaussianBlur stdDeviation="2"/><feColorMatrix values="0 0 0 0 0 0 0 0 0 0 0 0 0 0 0 0 0 0 0.25 0"/><feBlend in2="A"/><feBlend in="SourceGraphic"/></filter></defs></svg>